<svg xmlns="http://www.w3.org/2000/svg" viewBox="0 0 141.73 141.73"><defs><style>.cls-1{fill:#633510;}.cls-2{fill:#fff;}</style></defs><g id="Camada_2" data-name="Camada 2"><g id="Layer_1" data-name="Layer 1"><circle class="cls-1" cx="70.87" cy="70.87" r="70.87"/><path class="cls-2" d="M52.81,77.55V76.1L54.63,76l.51-.47.07-15.87-.42-.42L52.89,59V57.58l8.57,0v1.45l-1.81.14-.48.42L59.1,75.85l5.72,0,.38-.47.47-3.62h2.21l0,5.83Z"/><path class="cls-2" d="M70.26,57.66l8.41,0v1.42l-1.78.14-.24.39L80,65.2l3.91-5.43-.28-.43L82,59.13V57.71l6.66,0v1.42l-1.84.23-5.57,7.49,5.68,9,2,.4v1.43l-8.64,0V76.25L82.17,76l.2-.38-3.61-6-4.24,5.88.18.49,1.93.2v1.42l-6.87,0V76.2l1.91-.3L77.49,68,72.12,59.4l-1.87-.32Z"/><path class="cls-2" d="M69.13,45.15a30,30,0,0,0-13.08,3.47C49.76,51.9,44.27,57.42,39.72,65c0,0-.23.68.22,1a.94.94,0,0,0,.93,0c4.39-7.38,9.68-12.73,15.73-15.91a29.13,29.13,0,0,1,12-3.32,2,2,0,0,1,.38-1.4A1.37,1.37,0,0,1,69.13,45.15Z"/><path class="cls-2" d="M101.56,66.51c.88-.1.43-1.17.43-1.17-1.49-4.43-5.2-9.09-10.18-12.78a37.86,37.86,0,0,0-18.08-7.24L73,45.25a4.11,4.11,0,0,1,.38,1.64l.24,0c10.35,1.12,23.69,8.82,27.2,19.31C100.79,66.23,100.92,66.48,101.56,66.51Z"/><path class="cls-2" d="M71,39.19a2.42,2.42,0,1,0,2.18,2.42A2.31,2.31,0,0,0,71,39.19Z"/><path class="cls-2" d="M71,44.65a2,2,0,1,0,1.76,2A1.87,1.87,0,0,0,71,44.65Z"/><path class="cls-2" d="M38.26,69.43l-.06-1.94c-.1-.73-.55-1.36-1.21-1.26L36,67c-.66.1-.18,1.94-.18,1.94.1.72,1,1.85,1.64,1.75S38.36,70.16,38.26,69.43Z"/><path class="cls-2" d="M41.33,75.34c0-.29-.23-.54-.49-.5l-.4.3c-.27,0-.08.78-.08.78,0,.3.4.75.66.71s.37-.21.33-.5Z"/><path class="cls-2" d="M41,72.43c-.26-.05-.61.64-.41,1a2.18,2.18,0,0,0,1.63,1.14,2,2,0,0,0,2-.8A.6.6,0,0,0,44,73Z"/><path class="cls-2" d="M40.75,69.72a2.65,2.65,0,0,1,.56-1.16,1,1,0,0,0-.06-.71,1.13,1.13,0,0,0-1.39,0,1.58,1.58,0,0,0-.68,1.83,2.27,2.27,0,0,0,2,1.88A5.5,5.5,0,0,1,40.75,69.72Z"/><path class="cls-2" d="M68.2,36.86c.35-.33,1.15-.86,1.43-1.21a3.23,3.23,0,0,0-.12-2.55,6,6,0,0,0-1.44-.83c-.41-.08-.52.53-.52.53s0,3.15,0,3.46S67.84,37.19,68.2,36.86Z"/><path class="cls-2" d="M72.39,35.66a17.26,17.26,0,0,0,1.43,1.22c.35.34.63-.29.63-.59s0-3.46,0-3.46-.1-.61-.51-.53a5.84,5.84,0,0,0-1.45.81A3.28,3.28,0,0,0,72.39,35.66Z"/><path class="cls-2" d="M70.26,33.07a1.08,1.08,0,0,0,.62.19l0,0h.26a1.07,1.07,0,0,0,.62-.2c.28-.3.7-1.14,1-1.51s-.23-.67-.47-.67l-1.13,0H69.79c-.24,0-.73.29-.48.67S70,32.76,70.26,33.07Z"/><path class="cls-2" d="M70.88,38.37h1.37c.24,0,.73-.29.47-.67s-.67-1.22-1-1.52a1,1,0,0,0-.61-.2l0,0H70.9l0,0a1,1,0,0,0-.61.19c-.28.3-.7,1.14-1,1.52s.22.67.46.67Z"/><path class="cls-2" d="M52.52,90.28l-.07-.61c-.26-1.79-.45-2.19-1.06-2.2L49,87.89l2.35,3C51.94,90.89,52.52,91,52.52,90.28Z"/><path class="cls-2" d="M38.9,71.67l-1.24.21,1.21,1.55c.31,0,.61,0,.61-.32l0-.31C39.31,71.88,39.21,71.67,38.9,71.67Z"/><path class="cls-2" d="M104.91,67.35l-1-.76c-.66-.11-1.11.51-1.23,1.24l-.07,2c-.11.72.14,1.15.8,1.25s1.54-1,1.66-1.74C105.08,69.29,105.57,67.45,104.91,67.35Z"/><path class="cls-2" d="M100.39,75.46l-.39-.31c-.27,0-.45.21-.5.51l0,.78c0,.29.06.47.32.51s.63-.41.67-.7C100.46,76.25,100.66,75.51,100.39,75.46Z"/><path class="cls-2" d="M96.6,74.07a1.94,1.94,0,0,0,2,.82,2.17,2.17,0,0,0,1.64-1.13c.21-.37-.13-1.06-.4-1l-3,.5A.61.61,0,0,0,96.6,74.07Z"/><path class="cls-2" d="M101,68.12a1.16,1.16,0,0,0-1.4,0,.94.94,0,0,0-.06.7,2.71,2.71,0,0,1,.55,1.17,5.56,5.56,0,0,1-.5,1.79A2.29,2.29,0,0,0,101.7,70,1.59,1.59,0,0,0,101,68.12Z"/><path class="cls-2" d="M101.62,73.26l0,.31c0,.35.29.32.6.32l1.23-1.53-1.24-.22C101.86,72.14,101.77,72.34,101.62,73.26Z"/><path class="cls-2" d="M37.23,64.72a1.62,1.62,0,1,0-1.53-1.63A1.57,1.57,0,0,0,37.23,64.72Z"/><path class="cls-2" d="M39.58,61a1.62,1.62,0,1,0-1.53-1.63A1.58,1.58,0,0,0,39.58,61Z"/><path class="cls-2" d="M42.76,57.32a1.57,1.57,0,0,0,1.55-1.61,1.54,1.54,0,1,0-1.55,1.61Z"/><path class="cls-2" d="M46,53.85a1.62,1.62,0,1,0-1.54-1.63A1.58,1.58,0,0,0,46,53.85Z"/><path class="cls-2" d="M49.18,51a1.62,1.62,0,1,0-1.53-1.63A1.59,1.59,0,0,0,49.18,51Z"/><path class="cls-2" d="M53.08,48.59A1.62,1.62,0,1,0,51.54,47,1.58,1.58,0,0,0,53.08,48.59Z"/><path class="cls-2" d="M57.51,46.33A1.63,1.63,0,1,0,56,44.7,1.59,1.59,0,0,0,57.51,46.33Z"/><path class="cls-2" d="M61.85,44.78a1.56,1.56,0,0,0,1.54-1.61,1.54,1.54,0,1,0-1.54,1.61Z"/><path class="cls-2" d="M66.72,43.83a1.62,1.62,0,1,0-1.53-1.63A1.57,1.57,0,0,0,66.72,43.83Z"/><path class="cls-2" d="M104.56,61.77a1.62,1.62,0,1,0,1.53,1.63A1.59,1.59,0,0,0,104.56,61.77Z"/><path class="cls-2" d="M102.23,61.29a1.62,1.62,0,1,0-1.53-1.63A1.58,1.58,0,0,0,102.23,61.29Z"/><path class="cls-2" d="M99.07,57.57a1.62,1.62,0,1,0-1.53-1.63A1.59,1.59,0,0,0,99.07,57.57Z"/><path class="cls-2" d="M95.88,54.06a1.62,1.62,0,1,0-1.53-1.62A1.58,1.58,0,0,0,95.88,54.06Z"/><path class="cls-2" d="M92.71,51.23a1.62,1.62,0,1,0-1.53-1.63A1.58,1.58,0,0,0,92.71,51.23Z"/><path class="cls-2" d="M88.84,48.75a1.63,1.63,0,1,0-1.53-1.63A1.58,1.58,0,0,0,88.84,48.75Z"/><path class="cls-2" d="M84.42,46.44a1.62,1.62,0,1,0-1.53-1.63A1.58,1.58,0,0,0,84.42,46.44Z"/><path class="cls-2" d="M80.1,44.86a1.62,1.62,0,1,0-1.53-1.62A1.58,1.58,0,0,0,80.1,44.86Z"/><path class="cls-2" d="M73.71,42.24a1.54,1.54,0,1,0,1.54-1.61A1.57,1.57,0,0,0,73.71,42.24Z"/><path class="cls-2" d="M89.11,92.77l-11.79,0a.88.88,0,0,0,.11,1.35l11.67.05a.57.57,0,0,0,.58-.57v-.2A.59.59,0,0,0,89.11,92.77Z"/><path class="cls-2" d="M89.56,89.83l-.08.61c0,.67.57.62,1.18.62l2.39-3-2.42-.44C90,87.64,89.83,88.05,89.56,89.83Z"/><path class="cls-2" d="M71,49.91a1.83,1.83,0,1,0,1.65,1.83A1.74,1.74,0,0,0,71,49.91Z"/><path class="cls-2" d="M93.94,85s-14.55-2.44-15.27-2.18c-.93.32-.71.86-.71.86a1,1,0,0,0,.92.88,106.73,106.73,0,0,1,15,2.15,1.3,1.3,0,0,0,1.21-.83S95.65,85.26,93.94,85Z"/><path class="cls-2" d="M97.36,80.68l-5.78-2.79c-1-.26-1.54.79-1.86,1.73-.23,1.74.26,2.18,1,2.45l5.47,1.86c.57.12,1.73-1.42,1.73-1.42A1.28,1.28,0,0,0,97.36,80.68Z"/><path class="cls-2" d="M70.82,80.88c-2.64,1.78-2.1,6,0,9.81C73.16,85.93,73.19,82.88,70.82,80.88Z"/><path class="cls-2" d="M69.69,90.48c-.36-1.78-.92-3.18-2.48-3.89a2.38,2.38,0,0,0-3.37,1.26,2.3,2.3,0,0,0,1.06,3.22C65.57,88.79,67.12,88.55,69.69,90.48Z"/><path class="cls-2" d="M77.73,87.88A2.26,2.26,0,0,0,75,86.43,3.79,3.79,0,0,0,72.09,90c.92-.27,1.87-.84,2.71-.7s1.45,1,2.25,1.63A2.38,2.38,0,0,0,77.73,87.88Z"/><path class="cls-2" d="M74,91.7c-2.17-.57-4.2-1-6.45.14C69.41,93.16,72.73,93.08,74,91.7Z"/><path class="cls-2" d="M70.73,98.64c1.31-2,1.32-3.65,0-5.38C69.45,95,69.44,96.64,70.73,98.64Z"/><path class="cls-2" d="M73.38,96a1.68,1.68,0,0,0,1.84-1.28L71.79,94C72.07,94.71,72.14,95.79,73.38,96Z"/><path class="cls-2" d="M68.21,95.92c1.11-.22,1.26-1.21,1.5-1.9l-3.37.65C66.66,95.35,67.15,96.12,68.21,95.92Z"/><path class="cls-2" d="M63.58,83.64s.22-.54-.7-.87c-.72-.26-15.29,2-15.29,2-1.72.22-1.2.87-1.2.87a1.31,1.31,0,0,0,1.2.84,107.22,107.22,0,0,1,15.07-2A1.05,1.05,0,0,0,63.58,83.64Z"/><path class="cls-2" d="M52.2,74.38a.62.62,0,0,0-.5-1l-.15,0A22.5,22.5,0,0,0,47.24,75,43,43,0,0,0,42,77.76c-.54.27-.31,1.45.69,1.07A30.18,30.18,0,0,1,52,74.49.38.38,0,0,0,52.2,74.38Z"/><path class="cls-2" d="M51.86,79.46c-.31-.94-.81-2-1.84-1.75L44.2,80.45a1.29,1.29,0,0,0-.59,1.83s1.14,1.55,1.72,1.43l5.48-1.81C51.58,81.63,52.07,81.2,51.86,79.46Z"/><path class="cls-2" d="M52.42,92.62a.56.56,0,0,0-.57.56v.21a.57.57,0,0,0,.57.57L64.1,94a.87.87,0,0,0,.11-1.34Z"/><path class="cls-2" d="M89.33,74.72a.63.63,0,0,1,.5-1l.15,0a22.52,22.52,0,0,1,4.31,1.64,42.2,42.2,0,0,1,5.21,2.75.63.63,0,0,1-.68,1.07,30,30,0,0,0-9.33-4.33A.41.41,0,0,1,89.33,74.72Z"/><path class="cls-2" d="M43.14,109.87v-.51l.61,0,.19-.17v-5.57l-.15-.15-.69,0v-.51h2.82a3.71,3.71,0,0,1,2.17.5,1.85,1.85,0,0,1,.68,1.6,2.14,2.14,0,0,1-.72,1.72,3.05,3.05,0,0,1-2,.61h-.3l-.42,0v1.88l.16.17.75,0v.51Zm2.18-3.21h0a2.45,2.45,0,0,0,.34,0,1.63,1.63,0,0,0,1.22-.42,1.68,1.68,0,0,0,.41-1.25,1.62,1.62,0,0,0-.37-1.15,1.47,1.47,0,0,0-1.09-.4h-.55Z"/><path class="cls-2" d="M49.64,106.33a4.15,4.15,0,0,1,.27-1.54,3.12,3.12,0,0,1,.81-1.18,3.26,3.26,0,0,1,1.1-.68,3.66,3.66,0,0,1,1.34-.23,3.85,3.85,0,0,1,1.25.2,3.25,3.25,0,0,1,1.06.62,3.36,3.36,0,0,1,.92,1.25,4.22,4.22,0,0,1,0,3.15,3.2,3.2,0,0,1-.83,1.2,3.4,3.4,0,0,1-1.08.68,3.73,3.73,0,0,1-3.88-.78A3.7,3.7,0,0,1,49.64,106.33Zm3.55-3a1.68,1.68,0,0,0-1.45.81,3.85,3.85,0,0,0-.54,2.17,4.05,4.05,0,0,0,.54,2.22,1.66,1.66,0,0,0,2.86,0,3.9,3.9,0,0,0,.54-2.17,4.16,4.16,0,0,0-.53-2.23A1.63,1.63,0,0,0,53.19,103.37Z"/><path class="cls-2" d="M57.64,102.86h3.18a3.13,3.13,0,0,1,1.83.45,1.54,1.54,0,0,1,.63,1.33,1.63,1.63,0,0,1-.46,1.18,2.5,2.5,0,0,1-1.34.61,2.05,2.05,0,0,1,.65.25,1.44,1.44,0,0,1,.45.4,4,4,0,0,1,.43,1c.08.23.13.4.17.51a1.18,1.18,0,0,0,.42.57,1.6,1.6,0,0,0,.82.16h.13v.5l-.55.06a4.35,4.35,0,0,1-.5,0,2.35,2.35,0,0,1-.6-.08,1.54,1.54,0,0,1-.48-.24,2.38,2.38,0,0,1-.75-1.21l-.05-.18a2.54,2.54,0,0,0-.64-1.17,1.63,1.63,0,0,0-1-.27h-.18v2.35l.17.17.64,0v.51h-3v-.51l.62,0,.16-.17v-5.57l-.16-.15-.62,0Zm2.14.59v2.73h.37a1.89,1.89,0,0,0,1.25-.34,1.31,1.31,0,0,0,.4-1.06,1.24,1.24,0,0,0-.39-1,1.72,1.72,0,0,0-1.15-.35Z"/><path class="cls-2" d="M64.37,102.86h6v1.85h-.72l-.18-1.12-.15-.14H68.09v5.69l.18.17.68,0v.51H65.82v-.51l.68,0,.18-.17v-5.69H65.43l-.16.14-.18,1.12h-.72Z"/><path class="cls-2" d="M71,102.86h3v.51l-.65,0-.15.15v3.66a2.21,2.21,0,0,0,.4,1.49,1.67,1.67,0,0,0,1.31.45,1.48,1.48,0,0,0,1.21-.47,2.57,2.57,0,0,0,.37-1.57v-3.52l-.15-.18-.67-.06v-.51H78v.51l-.64.06-.14.18v3.63A2.36,2.36,0,0,1,74.46,110a3.69,3.69,0,0,1-1.34-.22,2.08,2.08,0,0,1-.9-.64,2,2,0,0,1-.35-.75,5.19,5.19,0,0,1-.11-1.2v-3.62l-.15-.15-.65,0Z"/><path class="cls-2" d="M82.52,106.42h3v.52l-.6,0-.17.14v2.44a8.24,8.24,0,0,1-1.2.32,6.46,6.46,0,0,1-1.14.11,3.5,3.5,0,0,1-3.68-3.68,3.41,3.41,0,0,1,1-2.6,3.91,3.91,0,0,1,2.77-1,6.74,6.74,0,0,1,1.08.09,7,7,0,0,1,1.13.26v1.77H84l-.2-1.11-.16-.18a2.25,2.25,0,0,0-.42-.13,2.15,2.15,0,0,0-.45,0,2.29,2.29,0,0,0-1.84.78,3.16,3.16,0,0,0-.68,2.14,3.23,3.23,0,0,0,.69,2.19,2.42,2.42,0,0,0,1.91.78h.23l.34,0v-2.13L83.3,107l-.78,0Z"/><path class="cls-2" d="M88.9,102.78H90l2.4,6.47.62.11v.51H90.2v-.51l.65-.07.08-.13-.63-1.77H88l-.63,1.76.11.14.66.07v.51H85.91v-.51l.63-.1Zm.23,1.43-.91,2.59h1.84Z"/><path class="cls-2" d="M93.35,109.87v-.51l.64,0,.18-.17v-5.57l-.15-.15-.67,0v-.51h3v.51l-.63,0-.17.15v5.69h2l.13-.16.16-1.28h.78v2.05Z"/><path class="cls-2" d="M16.18,57c.55-1.8.85-2.68,1.5-4.39a5.74,5.74,0,0,1,1.24-2.17,1,1,0,0,1,1.24-.29,1.1,1.1,0,0,1,.57.87,4,4,0,0,1-.12,1.63,3.79,3.79,0,0,1,1.08-1.59,1,1,0,0,1,1.19-.13,1.5,1.5,0,0,1,.78,1.39,6.33,6.33,0,0,1-.55,2.54c-.59,1.58-.87,2.4-1.38,4.07l-.4-.14.2-.82a2.44,2.44,0,0,0-.06-.26l-4.38-1.62c-.08.07-.11.11-.19.19l-.32.86Zm3.42-2,0-.13.09-.24a4.08,4.08,0,0,0,.33-1.68,1,1,0,0,0-.58-.86.77.77,0,0,0-.89.15,3.55,3.55,0,0,0-.78,1.38q-.06.16-.18.54v0ZM22.16,56l0-.05c.11-.26.18-.45.23-.58a4.54,4.54,0,0,0,.37-1.76,1,1,0,0,0-.61-.9.84.84,0,0,0-1,.13,3.33,3.33,0,0,0-.83,1.4c-.08.19-.14.36-.18.49s-.09.27-.13.41Z"/><path class="cls-2" d="M19.59,48.06c.75-1.62,1.15-2.41,2-3.94a5.45,5.45,0,0,1,1.56-1.93,1.1,1.1,0,0,1,1.36,0,1.28,1.28,0,0,1,.5,1.08,4.85,4.85,0,0,1-.45,1.8,4,4,0,0,1,.59-.62,1.71,1.71,0,0,1,.57-.29,2.58,2.58,0,0,1,1,.05l.46.07a1,1,0,0,0,.67-.14,2.88,2.88,0,0,0,.64-.75l.09-.13.34.26-.32.58c-.11.19-.21.36-.31.51a3.83,3.83,0,0,1-.44.58,2.25,2.25,0,0,1-.47.39,2,2,0,0,1-1.31.21l-.17,0a1.86,1.86,0,0,0-1.22.16,2.71,2.71,0,0,0-.82,1,2.12,2.12,0,0,0-.11.21l1.7,1,.21-.12.42-.67.37.23c-.7,1.28-1,1.94-1.66,3.29l-.38-.2c.12-.3.17-.45.29-.74,0-.1,0-.15,0-.26l-4.1-2.33-.21.15-.4.76Zm1.75-2.42,2,1.2.1-.16.14-.26a3.85,3.85,0,0,0,.54-1.59,1,1,0,0,0-.48-1,.83.83,0,0,0-1,0,3.11,3.11,0,0,0-1,1.21Z"/><path class="cls-2" d="M29,43.39l-.35-.27.43-.72a2.17,2.17,0,0,0,0-.26l-3.7-3-.23.1L24.6,40l-.34-.26c.92-1.39,1.4-2.06,2.4-3.35l.33.3-.52.74c0,.11,0,.16,0,.26l3.61,3.12.23-.07c.21-.25.32-.38.54-.62l.32.29C30.25,41.55,29.82,42.15,29,43.39Z"/><path class="cls-2" d="M32.43,34.32c1-1.07,1.53-1.58,2.59-2.56l.29.34-.5.53a1.8,1.8,0,0,1-.06.22l1.36,1.63c-.26.41-.52.8-.79,1.16a12,12,0,0,1-.84,1,5.24,5.24,0,0,1-2.65,1.67,2.56,2.56,0,0,1-2.44-.62,2.7,2.7,0,0,1-.8-2.54,6.15,6.15,0,0,1,1.75-3.23,9.83,9.83,0,0,1,1-.92,11,11,0,0,1,1.16-.83l1,1.18-.67.65-.8-.55-.25,0a3,3,0,0,0-.44.29,3.51,3.51,0,0,0-.41.37,3.68,3.68,0,0,0-1.11,2.2,2.37,2.37,0,0,0,.76,1.93,2.22,2.22,0,0,0,1.87.71,3.34,3.34,0,0,0,2-1.13l.18-.2.26-.29c-.49-.56-.74-.83-1.23-1.38l-.21,0c-.27.25-.41.38-.67.64Z"/><path class="cls-2" d="M35.94,26.8c.42-.34.63-.5,1.06-.83a54.14,54.14,0,0,1,5.33,3.11l.61-.3.23.38c-1,.68-1.54,1-2.53,1.8l-.25-.37c.22-.2.33-.3.56-.49V30c-.56-.35-.84-.53-1.42-.87-.83.63-1.25,1-2.06,1.63.15.69.22,1,.38,1.7H38l.6-.42.27.36c-.77.64-1.15,1-1.89,1.65l-.28-.34.47-.55A61.4,61.4,0,0,1,35.94,26.8Zm.94.85c.17,1,.27,1.51.47,2.5.66-.54,1-.81,1.68-1.33C38.18,28.34,37.75,28.1,36.88,27.65Z"/><path class="cls-2" d="M43.3,21.88a5.13,5.13,0,0,1,3.28-.82,2.44,2.44,0,0,1,1.93,1.6,3,3,0,0,1,.23,1.48,3.27,3.27,0,0,1-.52,1.44,4,4,0,0,1-.81.9,9,9,0,0,1-1.31.88c-1.15.65-1.72,1-2.83,1.74L43,28.71l.57-.42.08-.23-2.4-4.23h-.24l-.67.38-.23-.39C41.39,23,42,22.6,43.3,21.88Zm-.66,1L45,27.38l.57-.34a3.11,3.11,0,0,0,1.51-1.55,2.64,2.64,0,0,0-.2-2.06A2.32,2.32,0,0,0,45.48,22a3,3,0,0,0-2.22.49Z"/><path class="cls-2" d="M50.35,25.21l-.17-.42.62-.32.11-.21-1.77-4.58-.23,0-.71.26c-.06-.17-.1-.25-.16-.42a48,48,0,0,1,5.84-2.23c.16.56.24.84.41,1.39l-.8.26-.44-.7-.16-.08c-.93.32-1.39.49-2.31.85.3.83.45,1.24.74,2.07.58-.23.87-.34,1.45-.54a1.08,1.08,0,0,1,.11-.18c0-.27-.05-.41-.09-.68l.67-.23.63,2.05-.64.22-.32-.59L52.94,21l-1.43.54.8,2.26c1-.39,1.47-.57,2.47-.9l.08-.18c0-.4-.07-.6-.11-1l.75-.23L56,23.1A42.55,42.55,0,0,0,50.35,25.21Z"/><path class="cls-2" d="M56.59,22.91l-.12-.44.71-.25a1.33,1.33,0,0,1,.14-.19l-1.2-4.78-.23-.08-.79.18L55,16.92c1.42-.42,2.13-.6,3.57-.93,0,.18.06.27.09.44l-.78.23-.17.18,1.08,4.81.2.1.74-.12.09.44C58.51,22.36,57.86,22.53,56.59,22.91Z"/><path class="cls-2" d="M59.22,15.85c1.47-.31,2.2-.44,3.68-.66a4.17,4.17,0,0,1,2.17.14,1.27,1.27,0,0,1,.83,1.11,1.31,1.31,0,0,1-.42,1.08,3.58,3.58,0,0,1-1.44.72,3.1,3.1,0,0,1,.75.12,1.29,1.29,0,0,1,.52.31,2.65,2.65,0,0,1,.56.87l.22.42a1,1,0,0,0,.49.47,2,2,0,0,0,.88.08h.14c0,.18,0,.27,0,.44l-.57.1-.52.06a2.69,2.69,0,0,1-.64,0,2,2,0,0,1-.53-.15,2.22,2.22,0,0,1-.9-1c0-.06-.06-.12-.08-.15a2.18,2.18,0,0,0-.82-.94,2,2,0,0,0-1.14-.07l-.2,0c.13.83.19,1.24.31,2.06l.2.12.68-.06c0,.18,0,.27.06.45-1.23.18-1.85.29-3.07.55l-.08-.44.63-.18.15-.18c-.34-1.94-.52-2.92-.86-4.86L60,16.19l-.71.1C59.27,16.11,59.26,16,59.22,15.85Zm2.56.05c.15,1,.22,1.44.37,2.39l.16,0,.25,0a2.76,2.76,0,0,0,1.35-.5,1.07,1.07,0,0,0,.34-1,1,1,0,0,0-.55-.82,2.24,2.24,0,0,0-1.36-.12Z"/><path class="cls-2" d="M67.67,17.8a3,3,0,0,1,.24-1.38,2.75,2.75,0,0,1,.88-1.09,4,4,0,0,1,1.27-.63,5.23,5.23,0,0,1,1.57-.21,5.14,5.14,0,0,1,1.46.22,3.94,3.94,0,0,1,1.21.61,3,3,0,0,1,1,1.18A2.9,2.9,0,0,1,75.53,18a3.06,3.06,0,0,1-.41,1.33,3.41,3.41,0,0,1-1,1,4,4,0,0,1-1.18.54,4.61,4.61,0,0,1-1.34.17,4.31,4.31,0,0,1-2.77-.87A3,3,0,0,1,67.67,17.8Zm4-2.71a2,2,0,0,0-1.67.72,2.77,2.77,0,0,0-.57,1.93,3.12,3.12,0,0,0,.63,2,1.9,1.9,0,0,0,1.52.74,1.94,1.94,0,0,0,1.55-.68,3,3,0,0,0,.68-1.89,3,3,0,0,0-.51-2A2,2,0,0,0,71.65,15.09Z"/><path class="cls-2" d="M83.85,19.39c1.32.33,2,.52,3.28.94l-.12.44-.66-.16-.21.07-.57,2.08c-.46,0-.89,0-1.3-.08a9.41,9.41,0,0,1-1.2-.22A4.7,4.7,0,0,1,80.49,21a3.09,3.09,0,0,1-.72-2.53,2.6,2.6,0,0,1,1.55-2.06,5,5,0,0,1,3.34-.14,8.44,8.44,0,0,1,1.2.4,9.84,9.84,0,0,1,1.23.59l-.42,1.52c-.33-.11-.5-.16-.84-.25,0-.41,0-.61,0-1-.06-.09-.09-.13-.14-.22a2.38,2.38,0,0,0-.45-.23,2.45,2.45,0,0,0-.5-.17,2.91,2.91,0,0,0-2.23.18,2.31,2.31,0,0,0-1.1,1.7,2.63,2.63,0,0,0,.37,2.06A3.13,3.13,0,0,0,83.66,22l.24.05.36.08.45-1.83c-.06-.07-.08-.11-.14-.17l-.83-.27Z"/><path class="cls-2" d="M87.84,20.48a2.94,2.94,0,0,1,.69-1.21,2.84,2.84,0,0,1,1.2-.68,3.93,3.93,0,0,1,1.42-.11,5.52,5.52,0,0,1,1.54.41,5.32,5.32,0,0,1,1.3.77,4.33,4.33,0,0,1,.93,1,3.43,3.43,0,0,1,.52,1.48,3,3,0,0,1-1.12,2.54,3,3,0,0,1-1.25.56,4.33,4.33,0,0,1-1.3.05A5,5,0,0,1,90.45,25a4.65,4.65,0,0,1-2.3-1.87A3.12,3.12,0,0,1,87.84,20.48Zm4.66-1a2,2,0,0,0-1.81,0,2.67,2.67,0,0,0-1.21,1.59,3.13,3.13,0,0,0-.07,2.06,2,2,0,0,0,1.17,1.27,1.89,1.89,0,0,0,1.69,0,2.78,2.78,0,0,0,1.29-1.5,3,3,0,0,0,.21-2.07A2.15,2.15,0,0,0,92.5,19.45Z"/><path class="cls-2" d="M97.09,21.14c1.27.67,1.9,1,3.13,1.8l-.21.39L99.32,23l-.21,0c-.61,1.13-.91,1.7-1.51,2.83a1.76,1.76,0,0,0-.24,1.39,2.34,2.34,0,0,0,1,1.11,1.47,1.47,0,0,0,2.4-.54l1.62-2.62c0-.09,0-.14-.08-.24l-.63-.5.23-.38c.95.64,1.43,1,2.36,1.67l-.25.37-.65-.41-.23,0c-.68,1.06-1,1.6-1.71,2.66a2.1,2.1,0,0,1-1.58,1.13,3.81,3.81,0,0,1-2.22-.79,5.47,5.47,0,0,1-1.14-.93,2.38,2.38,0,0,1-.59-1,1.72,1.72,0,0,1,0-.78,4,4,0,0,1,.38-1c.56-1.14.84-1.7,1.41-2.84l-.1-.2-.67-.42Z"/><path class="cls-2" d="M104.72,26c1.24.95,1.85,1.45,3,2.5a5,5,0,0,1,1.43,1.85,1.33,1.33,0,0,1-.2,1.41,1.11,1.11,0,0,1-1,.39,3.67,3.67,0,0,1-1.51-.68,3.27,3.27,0,0,1,.44.69,1.61,1.61,0,0,1,.15.62,3.1,3.1,0,0,1-.21,1c-.07.21-.12.36-.15.47a1.25,1.25,0,0,0,0,.72,2.67,2.67,0,0,0,.56.77l.11.1-.29.32-.48-.41-.4-.38a3.16,3.16,0,0,1-.44-.54,2,2,0,0,1-.26-.53,2.37,2.37,0,0,1,0-1.39c0-.07,0-.13.06-.17a2.37,2.37,0,0,0,.08-1.29,2.54,2.54,0,0,0-.75-1l-.16-.13-1.23,1.64a2.1,2.1,0,0,1,.06.24l.52.5-.27.36c-1-.87-1.5-1.29-2.54-2.08l.25-.37.57.39a1.76,1.76,0,0,1,.23,0l2.79-4-.08-.23-.57-.5Zm1.75,2.07c-.57.76-.85,1.15-1.41,1.91l.12.11.2.18a3,3,0,0,0,1.3.75.94.94,0,0,0,.93-.39,1,1,0,0,0,.19-1,2.74,2.74,0,0,0-.88-1.17Z"/><path class="cls-2" d="M107.07,36.29l.3-.32.57.51h.23L111.45,33c0-.08,0-.12,0-.2l-.56-.67c.11-.13.17-.2.29-.32,1,1,1.43,1.52,2.34,2.6l-.18.17c-.65,1.8-1,2.67-1.73,4.4,1.7-.49,2.56-.71,4.31-1.08l.2-.17c.86,1.18,1.27,1.79,2.07,3l-.35.25-.55-.76-.18,0-3.77,2.91c0,.08,0,.12,0,.2.17.29.26.44.43.75l-.35.25c-.75-1.17-1.14-1.74-2-2.84l.34-.28.49.59.18,0,3.71-3a51.3,51.3,0,0,0-5.72,1.39l-.55-.69c1-2.24,1.4-3.4,2.21-5.75l-3.33,3.4a2.17,2.17,0,0,1,0,.26l.45.61-.31.31C108.18,37.48,107.82,37.08,107.07,36.29Z"/><path class="cls-2" d="M113.69,44.87l.36-.26c.18.25.26.38.44.64l.22.1,3.89-2.72c0-.11,0-.16,0-.26-.16-.31-.25-.46-.41-.76l.35-.25A51.43,51.43,0,0,1,122,47.72l-1.21.67c-.17-.36-.25-.54-.43-.89l.57-.61c0-.08,0-.12,0-.2-.52-1-.78-1.54-1.34-2.53l-1.77,1.15c.35.62.52.94.85,1.58l.2.1.61-.2.37.75-1.77,1c-.15-.28-.22-.43-.36-.71l.48-.46c0-.09,0-.13,0-.22-.33-.64-.5-1-.84-1.57l-1.93,1.26c.59,1.06.87,1.6,1.41,2.71l.19.07.91-.26c.17.33.25.5.4.84L117,51A45.42,45.42,0,0,0,113.69,44.87Z"/><path class="cls-2" d="M122.47,48.78A58.28,58.28,0,0,1,125.55,57l-1.46.51c-.12-.4-.19-.6-.31-1,.32-.23.48-.34.79-.58,0-.1,0-.15,0-.25-.23-.7-.35-1-.6-1.74l-4.41,1.83a2.51,2.51,0,0,0,0,.27l.25.88-.4.15c-.53-1.57-.82-2.34-1.44-3.83l.39-.19c.15.32.23.48.38.81L119,54l4.34-2c-.26-.67-.39-1-.67-1.65a1.46,1.46,0,0,0-.19-.16l-.94.19c-.15-.36-.23-.54-.4-.91Z"/><path class="cls-2" d="M126.68,62.17l-.06-.37h-1.94l.08.51A54.56,54.56,0,1,1,17,62.31l.08-.51H15.11l-.06.37a57.51,57.51,0,0,0-.66,8.6,56.48,56.48,0,1,0,112.29-8.6Z"/></g></g></svg>