<svg xmlns="http://www.w3.org/2000/svg" viewBox="0 0 136.06 136.06"><defs><style>.cls-1{fill:#6d351b;}</style></defs><g id="Camada_2" data-name="Camada 2"><g id="Layer_1" data-name="Layer 1"><path class="cls-1" d="M68,136.06a68,68,0,1,1,68-68A68.11,68.11,0,0,1,68,136.06ZM68,1.88A66.15,66.15,0,1,0,134.18,68,66.23,66.23,0,0,0,68,1.88Z"/><path class="cls-1" d="M37.63,109.58V109l.66-.06.2-.17v-5.92l-.17-.16-.73,0v-.55h3a3.89,3.89,0,0,1,2.31.54,2,2,0,0,1,.72,1.7,2.26,2.26,0,0,1-.77,1.82,3.17,3.17,0,0,1-2.14.65h-.32l-.44,0v2l.17.17.79.06v.55ZM40,106.16h0l.36,0a1.72,1.72,0,0,0,1.3-.45,1.84,1.84,0,0,0,.44-1.33,1.69,1.69,0,0,0-.4-1.22,1.53,1.53,0,0,0-1.16-.42H40Z"/><path class="cls-1" d="M44.69,105.67A4.48,4.48,0,0,1,45,104a3.35,3.35,0,0,1,.85-1.25,3.71,3.71,0,0,1,1.18-.72,3.85,3.85,0,0,1,1.42-.25,4.08,4.08,0,0,1,1.33.22,3.61,3.61,0,0,1,1.12.65,3.72,3.72,0,0,1,1,1.34,4.19,4.19,0,0,1,.34,1.72,4.25,4.25,0,0,1-.3,1.62,3.56,3.56,0,0,1-.89,1.28,3.72,3.72,0,0,1-1.15.72,3.64,3.64,0,0,1-1.35.26,3.69,3.69,0,0,1-2.77-1.09A3.94,3.94,0,0,1,44.69,105.67Zm3.77-3.14a1.78,1.78,0,0,0-1.54.85,4.16,4.16,0,0,0-.58,2.31,4.31,4.31,0,0,0,.58,2.36,1.75,1.75,0,0,0,1.51.89,1.77,1.77,0,0,0,1.53-.87,4.12,4.12,0,0,0,.57-2.3A4.42,4.42,0,0,0,50,103.4,1.74,1.74,0,0,0,48.46,102.53Z"/><path class="cls-1" d="M53.16,102h3.38a3.21,3.21,0,0,1,1.94.49,1.62,1.62,0,0,1,.67,1.41,1.7,1.7,0,0,1-.48,1.25,2.72,2.72,0,0,1-1.43.65,2.85,2.85,0,0,1,.7.26,1.61,1.61,0,0,1,.47.43,4.09,4.09,0,0,1,.46,1.11l.18.53a1.1,1.1,0,0,0,.45.61,1.63,1.63,0,0,0,.86.17h.14v.54l-.58.06a4.88,4.88,0,0,1-.53,0,2.25,2.25,0,0,1-.64-.09,1.52,1.52,0,0,1-.51-.25,2.53,2.53,0,0,1-.79-1.29,1.3,1.3,0,0,1-.06-.19,2.74,2.74,0,0,0-.68-1.24,1.72,1.72,0,0,0-1.08-.29h-.19v2.5l.18.17.68.06v.55H53.16v-.55l.66-.06.18-.17v-5.92l-.18-.16-.66,0Zm2.28.64v2.89h.4a2.05,2.05,0,0,0,1.33-.36A1.4,1.4,0,0,0,57.6,104a1.3,1.3,0,0,0-.43-1.06,1.81,1.81,0,0,0-1.22-.36Z"/><path class="cls-1" d="M60.77,102.12h6.41v2h-.77l-.19-1.19-.16-.14H64.73v6l.19.18.72.06v.54H62.31V109L63,109l.18-.18v-6H61.9l-.17.14-.19,1.19h-.77Z"/><path class="cls-1" d="M68.2,102h3.19v.55l-.69,0-.16.16v3.89a2.4,2.4,0,0,0,.43,1.59,1.79,1.79,0,0,0,1.39.47,1.54,1.54,0,0,0,1.28-.5,2.72,2.72,0,0,0,.4-1.67v-3.74l-.16-.19-.72-.06V102h2.53v.55l-.68.06-.15.19v3.86a2.52,2.52,0,0,1-2.94,2.93,4.1,4.1,0,0,1-1.42-.23,2.26,2.26,0,0,1-1-.68,2.07,2.07,0,0,1-.38-.79,6,6,0,0,1-.11-1.29v-3.84l-.16-.16-.7,0Z"/><path class="cls-1" d="M80.38,105.77h3.24v.55l-.64.05-.18.15v2.6a9.23,9.23,0,0,1-1.27.34,7.28,7.28,0,0,1-1.22.11,3.72,3.72,0,0,1-3.91-3.91,3.59,3.59,0,0,1,1.11-2.76,4.1,4.1,0,0,1,2.94-1,7.72,7.72,0,0,1,1.15.09,8,8,0,0,1,1.2.28v1.89H82l-.21-1.18-.17-.2a2.25,2.25,0,0,0-.44-.14,2.59,2.59,0,0,0-.48,0,2.45,2.45,0,0,0-2,.82,3.39,3.39,0,0,0-.72,2.28,3.48,3.48,0,0,0,.73,2.33,2.59,2.59,0,0,0,2,.83H81l.37,0v-2.27l-.18-.15-.82-.05Z"/><path class="cls-1" d="M87.37,101.9h1.16l2.56,6.88.66.11v.55h-3v-.55l.7-.07.08-.14-.67-1.89H86.44l-.67,1.88.11.14.7.08v.55H84.19v-.55l.67-.1Zm.24,1.53-1,2.74h2Z"/><path class="cls-1" d="M92.86,109.44v-.55l.68-.06.19-.17v-5.92l-.16-.16-.71,0V102h3.2v.55l-.68,0-.17.16v6.05h2.13l.14-.18.17-1.35h.83v2.18Z"/><polygon class="cls-1" points="51.49 73.3 49.63 73.46 49.63 74.94 64.96 75 64.98 69.06 62.73 69.06 62.26 72.74 61.87 73.23 56.03 73.2 56.11 56.67 56.6 56.25 58.45 56.11 58.45 54.63 49.72 54.59 49.71 56.07 51.65 56.23 52.08 56.66 52.01 72.83 51.49 73.3"/><polygon class="cls-1" points="77.64 73.61 77.63 75.06 86.43 75.1 86.43 73.65 84.41 73.24 78.61 64.06 84.29 56.43 86.17 56.2 86.17 54.74 79.39 54.72 79.39 56.17 81.04 56.38 81.32 56.81 77.34 62.35 73.92 56.69 74.16 56.29 75.98 56.15 75.98 54.7 67.41 54.66 67.4 56.12 69.31 56.44 74.78 65.18 68.84 73.26 66.9 73.56 66.89 75.01 73.9 75.04 73.9 73.59 71.94 73.39 71.76 72.89 76.08 66.89 79.76 72.98 79.55 73.36 77.64 73.61"/><path class="cls-1" d="M66.27,41.91a30.74,30.74,0,0,0-13.34,3.54c-6.41,3.34-12,9-16.64,16.73,0,0-.23.69.23,1a.93.93,0,0,0,.94,0c4.48-7.52,9.87-13,16-16.2a29.43,29.43,0,0,1,12.19-3.39,2.08,2.08,0,0,1,.38-1.42A1.64,1.64,0,0,1,66.27,41.91Z"/><path class="cls-1" d="M99.31,63.68c.9-.09.44-1.19.44-1.19-1.52-4.51-5.3-9.26-10.38-13A38.44,38.44,0,0,0,71,42.09L70.18,42a4.21,4.21,0,0,1,.38,1.67l.25,0c10.54,1.14,24.14,9,27.72,19.68C98.53,63.4,98.66,63.65,99.31,63.68Z"/><path class="cls-1" d="M68.14,40.75a2.46,2.46,0,1,0-2.22-2.46A2.35,2.35,0,0,0,68.14,40.75Z"/><path class="cls-1" d="M68.14,41.41a2,2,0,1,0,1.8,2A1.91,1.91,0,0,0,68.14,41.41Z"/><path class="cls-1" d="M34.8,66.67l-.06-2c-.11-.74-.56-1.38-1.24-1.28l-1,.77c-.67.1-.19,2-.19,2,.11.74,1,1.89,1.68,1.79S34.91,67.41,34.8,66.67Z"/><path class="cls-1" d="M37.93,72.69c0-.3-.23-.56-.5-.52l-.41.31c-.27,0-.08.8-.08.8.05.3.41.76.68.72s.37-.22.33-.51Z"/><path class="cls-1" d="M37.59,69.72c-.28,0-.63.65-.42,1a2.2,2.2,0,0,0,1.66,1.16,2,2,0,0,0,2.07-.82.63.63,0,0,0-.29-.83Z"/><path class="cls-1" d="M37.34,67a2.61,2.61,0,0,1,.57-1.19,1,1,0,0,0-.06-.72,1.17,1.17,0,0,0-1.42,0,1.59,1.59,0,0,0-.69,1.87,2.31,2.31,0,0,0,2.08,1.91A5.66,5.66,0,0,1,37.34,67Z"/><path class="cls-1" d="M65.31,33.47a18.25,18.25,0,0,0,1.46-1.24,3.31,3.31,0,0,0-.12-2.6,6.2,6.2,0,0,0-1.47-.84c-.42-.08-.53.54-.53.54s0,3.21,0,3.53S65,33.8,65.31,33.47Z"/><path class="cls-1" d="M69.59,32.24A17.86,17.86,0,0,0,71,33.49c.36.34.64-.29.64-.6s0-3.53,0-3.53-.1-.62-.52-.54a5.77,5.77,0,0,0-1.47.83A3.29,3.29,0,0,0,69.59,32.24Z"/><path class="cls-1" d="M67.42,29.6a1,1,0,0,0,.62.2l0,0h.22l0,0a1.09,1.09,0,0,0,.63-.19c.29-.31.71-1.16,1-1.55s-.23-.68-.47-.68l-1.15,0h-1.4c-.24,0-.74.29-.48.68A17.82,17.82,0,0,0,67.42,29.6Z"/><path class="cls-1" d="M68.05,35h1.39c.25,0,.75-.29.48-.68a17.82,17.82,0,0,0-1-1.55,1,1,0,0,0-.62-.2l0,0h-.22l0,0a1.12,1.12,0,0,0-.63.19c-.28.31-.71,1.17-1,1.55s.23.68.48.68Z"/><path class="cls-1" d="M49.33,87.91l-.07-.62c-.26-1.82-.45-2.24-1.07-2.24l-2.47.42,2.41,3.06C48.75,88.53,49.33,88.59,49.33,87.91Z"/><path class="cls-1" d="M35.45,68.94l-1.26.22,1.23,1.57c.32,0,.62,0,.62-.32l0-.31C35.87,69.16,35.77,69,35.45,68.94Z"/><path class="cls-1" d="M102.73,64.54l-1-.78c-.67-.1-1.13.53-1.25,1.27l-.07,2c-.12.74.13,1.18.81,1.29s1.57-1,1.69-1.78C102.9,66.52,103.4,64.65,102.73,64.54Z"/><path class="cls-1" d="M98.13,72.81l-.41-.31c-.27,0-.46.21-.5.51l0,.8c0,.29,0,.47.32.51s.64-.41.69-.71C98.2,73.61,98.4,72.85,98.13,72.81Z"/><path class="cls-1" d="M94.26,71.39a2,2,0,0,0,2.06.84A2.23,2.23,0,0,0,98,71.08c.21-.38-.14-1.09-.41-1l-3,.51A.63.63,0,0,0,94.26,71.39Z"/><path class="cls-1" d="M98.78,65.33a1.16,1.16,0,0,0-1.42,0,.9.9,0,0,0-.06.72,2.58,2.58,0,0,1,.55,1.18,5.65,5.65,0,0,1-.5,1.82,2.3,2.3,0,0,0,2.1-1.89A1.6,1.6,0,0,0,98.78,65.33Z"/><path class="cls-1" d="M99.38,70.57l0,.31c0,.36.3.33.62.33l1.25-1.56-1.27-.23C99.62,69.42,99.52,69.63,99.38,70.57Z"/><path class="cls-1" d="M33.75,61.86a1.65,1.65,0,1,0-1.56-1.66A1.61,1.61,0,0,0,33.75,61.86Z"/><path class="cls-1" d="M36.14,58.09a1.65,1.65,0,1,0-1.56-1.66A1.62,1.62,0,0,0,36.14,58.09Z"/><path class="cls-1" d="M39.39,54.32a1.65,1.65,0,1,0-1.56-1.65A1.61,1.61,0,0,0,39.39,54.32Z"/><path class="cls-1" d="M42.68,50.78a1.65,1.65,0,1,0-1.57-1.66A1.61,1.61,0,0,0,42.68,50.78Z"/><path class="cls-1" d="M45.93,47.92a1.66,1.66,0,1,0-1.56-1.66A1.62,1.62,0,0,0,45.93,47.92Z"/><path class="cls-1" d="M49.9,45.42a1.65,1.65,0,1,0-1.56-1.66A1.61,1.61,0,0,0,49.9,45.42Z"/><path class="cls-1" d="M54.42,43.11a1.65,1.65,0,1,0-1.56-1.65A1.61,1.61,0,0,0,54.42,43.11Z"/><path class="cls-1" d="M58.84,41.54a1.65,1.65,0,1,0-1.56-1.66A1.6,1.6,0,0,0,58.84,41.54Z"/><path class="cls-1" d="M63.8,40.57a1.65,1.65,0,1,0-1.56-1.66A1.61,1.61,0,0,0,63.8,40.57Z"/><path class="cls-1" d="M102.37,58.85a1.66,1.66,0,1,0,1.56,1.66A1.63,1.63,0,0,0,102.37,58.85Z"/><path class="cls-1" d="M100,58.36a1.65,1.65,0,1,0-1.56-1.65A1.6,1.6,0,0,0,100,58.36Z"/><path class="cls-1" d="M96.78,54.57a1.65,1.65,0,1,0-1.56-1.66A1.61,1.61,0,0,0,96.78,54.57Z"/><path class="cls-1" d="M93.53,51A1.65,1.65,0,1,0,92,49.34,1.61,1.61,0,0,0,93.53,51Z"/><path class="cls-1" d="M90.29,48.11a1.65,1.65,0,1,0-1.56-1.66A1.62,1.62,0,0,0,90.29,48.11Z"/><path class="cls-1" d="M86.35,45.58a1.65,1.65,0,1,0-1.56-1.66A1.61,1.61,0,0,0,86.35,45.58Z"/><path class="cls-1" d="M81.85,43.23a1.65,1.65,0,1,0-1.56-1.66A1.6,1.6,0,0,0,81.85,43.23Z"/><path class="cls-1" d="M77.44,41.62A1.65,1.65,0,1,0,75.88,40,1.61,1.61,0,0,0,77.44,41.62Z"/><path class="cls-1" d="M70.93,39a1.57,1.57,0,1,0,1.57-1.64A1.6,1.6,0,0,0,70.93,39Z"/><path class="cls-1" d="M86.62,90.45l-12,0a.89.89,0,0,0,.11,1.37l11.9.06a.58.58,0,0,0,.58-.58V91A.58.58,0,0,0,86.62,90.45Z"/><path class="cls-1" d="M87.08,87.46l-.08.61c0,.68.59.63,1.21.63l2.43-3-2.46-.45C87.56,85.22,87.36,85.63,87.08,87.46Z"/><path class="cls-1" d="M68.12,46.77a1.86,1.86,0,1,0,1.68,1.86A1.78,1.78,0,0,0,68.12,46.77Z"/><path class="cls-1" d="M91.55,82.55S76.72,80.07,76,80.32c-.94.33-.72.89-.72.89a1.06,1.06,0,0,0,.93.89,109.27,109.27,0,0,1,15.34,2.19,1.31,1.31,0,0,0,1.23-.84S93.29,82.79,91.55,82.55Z"/><path class="cls-1" d="M95,78.13l-5.9-2.85c-1.06-.27-1.57.81-1.89,1.77-.23,1.77.26,2.22,1,2.5l5.57,1.89c.58.13,1.77-1.45,1.77-1.45A1.31,1.31,0,0,0,95,78.13Z"/><path class="cls-1" d="M68,78.33c-2.7,1.82-2.15,6.06,0,10C70.37,83.47,70.4,80.37,68,78.33Z"/><path class="cls-1" d="M66.83,88.11c-.36-1.81-.94-3.24-2.53-4a2.43,2.43,0,0,0-3.43,1.29A2.35,2.35,0,0,0,62,88.72C62.64,86.39,64.22,86.15,66.83,88.11Z"/><path class="cls-1" d="M75,85.46A2.33,2.33,0,0,0,72.27,84a3.87,3.87,0,0,0-3,3.66c.93-.27,1.91-.85,2.76-.71s1.48,1,2.3,1.67A2.45,2.45,0,0,0,75,85.46Z"/><path class="cls-1" d="M71.19,89.36c-2.22-.58-4.29-1-6.58.14C66.54,90.84,69.93,90.76,71.19,89.36Z"/><path class="cls-1" d="M67.89,96.43c1.34-2.07,1.35-3.72,0-5.48C66.59,92.71,66.58,94.39,67.89,96.43Z"/><path class="cls-1" d="M70.59,93.69a1.71,1.71,0,0,0,1.88-1.29L69,91.73C69.26,92.43,69.33,93.53,70.59,93.69Z"/><path class="cls-1" d="M65.33,93.65c1.13-.22,1.28-1.23,1.53-1.93l-3.44.66C63.74,93.07,64.24,93.87,65.33,93.65Z"/><path class="cls-1" d="M60.61,81.14s.23-.55-.72-.89c-.73-.26-15.58,2.1-15.58,2.1-1.75.22-1.22.88-1.22.88a1.32,1.32,0,0,0,1.22.86A108.11,108.11,0,0,1,59.66,82,1.06,1.06,0,0,0,60.61,81.14Z"/><path class="cls-1" d="M49,71.71a.64.64,0,0,0-.52-1.06l-.15,0A23.36,23.36,0,0,0,44,72.34a42.39,42.39,0,0,0-5.31,2.81c-.56.28-.32,1.48.69,1.09a30.72,30.72,0,0,1,9.52-4.42A.38.38,0,0,0,49,71.71Z"/><path class="cls-1" d="M48.66,76.88c-.32-1-.82-2-1.88-1.78l-5.92,2.8a1.29,1.29,0,0,0-.61,1.85s1.17,1.59,1.76,1.47l5.58-1.85C48.37,79.1,48.87,78.66,48.66,76.88Z"/><path class="cls-1" d="M49.24,90.29a.59.59,0,0,0-.59.58v.21a.58.58,0,0,0,.58.58l11.9.06a.9.9,0,0,0,.12-1.38Z"/><path class="cls-1" d="M97.22,75.49a43.26,43.26,0,0,0-5.32-2.81A23.36,23.36,0,0,0,87.51,71l-.15,0a.64.64,0,0,0-.51,1.06.33.33,0,0,0,.16.11,30.66,30.66,0,0,1,9.51,4.42C97.53,77,97.77,75.77,97.22,75.49Z"/><path class="cls-1" d="M12.33,53.91c.56-1.84.86-2.73,1.52-4.47a6.32,6.32,0,0,1,1.26-2.22,1,1,0,0,1,1.27-.29,1.13,1.13,0,0,1,.59.88,4.43,4.43,0,0,1-.13,1.67,3.78,3.78,0,0,1,1.1-1.62,1.07,1.07,0,0,1,1.21-.14,1.57,1.57,0,0,1,.8,1.42,6.64,6.64,0,0,1-.56,2.59c-.61,1.61-.89,2.44-1.41,4.14l-.41-.14c.08-.34.12-.5.21-.83,0-.11,0-.17-.06-.27L13.25,53l-.19.2c-.13.34-.19.52-.32.87Zm3.48-2.08s0-.08,0-.14l.09-.23a4.35,4.35,0,0,0,.34-1.72,1,1,0,0,0-.6-.87.75.75,0,0,0-.89.15,3.55,3.55,0,0,0-.8,1.41l-.18.54,0,.05Zm2.61,1.08,0,0c.11-.26.18-.46.23-.59a4.79,4.79,0,0,0,.38-1.8,1,1,0,0,0-.62-.91.83.83,0,0,0-1,.13,3.43,3.43,0,0,0-.85,1.42l-.18.51c-.05.14-.09.27-.13.41Z"/><path class="cls-1" d="M15.8,44.8c.77-1.65,1.17-2.45,2-4a5.58,5.58,0,0,1,1.59-2,1.13,1.13,0,0,1,1.38,0,1.29,1.29,0,0,1,.51,1.11,4.83,4.83,0,0,1-.46,1.82,3.59,3.59,0,0,1,.61-.62,1.54,1.54,0,0,1,.58-.3,2.45,2.45,0,0,1,1,.05l.47.07a1,1,0,0,0,.68-.15,2.79,2.79,0,0,0,.66-.76l.09-.13.34.26q-.16.32-.33.6c-.1.19-.21.36-.31.52a4,4,0,0,1-.45.59,2.25,2.25,0,0,1-.47.39,2.05,2.05,0,0,1-1.34.22l-.17,0a2,2,0,0,0-1.25.16,2.72,2.72,0,0,0-.83,1.05l-.11.21,1.73,1.06.22-.12.42-.68.37.23c-.71,1.3-1,2-1.69,3.36l-.38-.21.3-.75c0-.11,0-.16,0-.27l-4.17-2.37-.21.15-.42.77Zm1.78-2.46,2,1.22.1-.17.14-.26a4,4,0,0,0,.56-1.62,1.08,1.08,0,0,0-.49-1,.86.86,0,0,0-1,0,3.09,3.09,0,0,0-1,1.22Z"/><path class="cls-1" d="M25.37,40,25,39.77l.44-.73c0-.11,0-.16,0-.27L21.7,35.72l-.24.11-.55.74-.35-.27C21.5,34.89,22,34.21,23,32.9l.33.29-.52.77c0,.1,0,.15,0,.26l3.69,3.18.23-.07.55-.64.33.3C26.66,38.17,26.22,38.78,25.37,40Z"/><path class="cls-1" d="M28.88,30.8c1-1.09,1.56-1.61,2.64-2.61l.29.36-.5.53-.07.23L32.63,31c-.26.43-.53.82-.8,1.19s-.56.7-.86,1a5.37,5.37,0,0,1-2.7,1.7,2.63,2.63,0,0,1-2.49-.63A2.74,2.74,0,0,1,25,31.65a6.3,6.3,0,0,1,1.78-3.29,10.24,10.24,0,0,1,1-.94A11.37,11.37,0,0,1,29,26.58l1,1.2-.68.66-.82-.56-.25,0a2.66,2.66,0,0,0-.45.29,5,5,0,0,0-.42.39,3.65,3.65,0,0,0-1.13,2.23,2.39,2.39,0,0,0,.78,2,2.24,2.24,0,0,0,1.9.73,3.43,3.43,0,0,0,2-1.16l.18-.2c.08-.08.16-.18.26-.3L30.1,30.44l-.23,0-.68.65Z"/><path class="cls-1" d="M32.45,23.15c.43-.35.65-.52,1.08-.85A53.89,53.89,0,0,1,39,25.47l.62-.31.24.39c-1,.7-1.57,1.06-2.58,1.83L37,27l.57-.49v-.15c-.57-.37-.86-.54-1.45-.89-.85.64-1.27,1-2.09,1.66.14.7.22,1,.38,1.73h.16l.62-.43.27.36c-.79.66-1.17,1-1.93,1.69l-.28-.35.48-.55C33.11,27.06,32.86,25.77,32.45,23.15Zm1,.86c.18,1,.27,1.54.48,2.55.67-.56,1-.83,1.71-1.36C34.73,24.71,34.3,24.47,33.41,24Z"/><path class="cls-1" d="M40,18.13a5.2,5.2,0,0,1,3.34-.83,2.5,2.5,0,0,1,2,1.63,3.1,3.1,0,0,1,.24,1.51A3.43,3.43,0,0,1,45,21.9a3.91,3.91,0,0,1-.82.92,9.37,9.37,0,0,1-1.34.9c-1.17.66-1.75,1-2.88,1.76l-.23-.39.57-.43a2.18,2.18,0,0,0,.09-.23c-1-1.72-1.47-2.58-2.44-4.31l-.25,0-.68.39-.23-.39C38,19.26,38.65,18.87,40,18.13Zm-.67,1,2.45,4.6.58-.34a3.16,3.16,0,0,0,1.53-1.58,2.74,2.74,0,0,0-.2-2.1,2.42,2.42,0,0,0-1.47-1.46,3,3,0,0,0-2.25.51C39.66,18.9,39.53,19,39.28,19.13Z"/><path class="cls-1" d="M47.13,21.52,47,21.1l.63-.33.11-.21-1.8-4.67-.23,0-.72.26c-.07-.17-.11-.25-.17-.42a46.08,46.08,0,0,1,5.95-2.27c.17.57.25.85.41,1.42l-.81.26c-.17-.29-.26-.43-.44-.72l-.16-.08c-.95.33-1.42.5-2.36.87l.75,2.11,1.48-.56a1.74,1.74,0,0,1,.11-.18c0-.27-.05-.41-.09-.68l.68-.24c.26.83.39,1.25.64,2.09l-.65.22-.33-.6-.19-.07c-.59.21-.88.32-1.46.55l.82,2.3c1-.39,1.5-.58,2.51-.91,0-.08,0-.12.09-.19,0-.41-.07-.61-.11-1l.76-.24c.19.65.28,1,.46,1.63A41.42,41.42,0,0,0,47.13,21.52Z"/><path class="cls-1" d="M53.49,19.18l-.12-.45.72-.25.14-.2c-.49-1.94-.73-2.92-1.22-4.87l-.23-.07-.81.18c0-.17-.07-.26-.12-.44,1.44-.43,2.17-.62,3.64-.94,0,.18,0,.27.09.45l-.8.23-.17.18,1.1,4.9.21.1.75-.12.09.45C55.44,18.63,54.79,18.8,53.49,19.18Z"/><path class="cls-1" d="M56.17,12c1.49-.32,2.24-.45,3.75-.67a4.33,4.33,0,0,1,2.21.14A1.27,1.27,0,0,1,63,12.59a1.29,1.29,0,0,1-.43,1.1,3.38,3.38,0,0,1-1.46.73,3.07,3.07,0,0,1,.76.13,1.33,1.33,0,0,1,.53.31,3.09,3.09,0,0,1,.58.89c.09.19.17.34.22.43a1,1,0,0,0,.5.48,2.23,2.23,0,0,0,.89.08h.14c0,.18,0,.27,0,.45l-.59.1-.53.06a2.81,2.81,0,0,1-.65,0,1.71,1.71,0,0,1-.54-.16,2.23,2.23,0,0,1-.92-1L61.42,16a2.23,2.23,0,0,0-.83-1A2.06,2.06,0,0,0,59.42,15l-.19,0c.12.84.19,1.26.31,2.1l.21.11.69-.05c0,.18,0,.27.06.46-1.26.18-1.88.29-3.13.56l-.08-.46.64-.18.16-.18c-.35-2-.53-3-.88-4.95L57,12.34l-.72.1C56.22,12.26,56.2,12.17,56.17,12Zm2.6,0c.15,1,.23,1.46.38,2.44l.16,0,.26,0a2.8,2.8,0,0,0,1.37-.51,1.1,1.1,0,0,0,.35-1,1,1,0,0,0-.56-.83A2.33,2.33,0,0,0,59.34,12Z"/><path class="cls-1" d="M64.78,14A3,3,0,0,1,65,12.57a2.83,2.83,0,0,1,.89-1.11,4.4,4.4,0,0,1,1.3-.65,5.44,5.44,0,0,1,1.6-.2,5.35,5.35,0,0,1,1.49.22,4.07,4.07,0,0,1,1.23.62,3.19,3.19,0,0,1,1,1.21,2.85,2.85,0,0,1,.25,1.48,3.06,3.06,0,0,1-.42,1.35,3.2,3.2,0,0,1-1,1,4.21,4.21,0,0,1-1.19.56,4.81,4.81,0,0,1-1.37.17A4.44,4.44,0,0,1,66,16.35,3.08,3.08,0,0,1,64.78,14Zm4-2.77a2.07,2.07,0,0,0-1.7.74,2.82,2.82,0,0,0-.59,2,3.22,3.22,0,0,0,.65,2,1.94,1.94,0,0,0,1.55.75A2,2,0,0,0,70.32,16,3.07,3.07,0,0,0,71,14.05a3,3,0,0,0-.52-2A2,2,0,0,0,68.83,11.21Z"/><path class="cls-1" d="M81.25,15.6c1.35.34,2,.53,3.35,1l-.13.45-.67-.16-.21.07L83,19a11.19,11.19,0,0,1-1.33-.08,9.25,9.25,0,0,1-1.21-.22,4.79,4.79,0,0,1-2.64-1.52,3.1,3.1,0,0,1-.73-2.57,2.66,2.66,0,0,1,1.58-2.1,5.13,5.13,0,0,1,3.4-.15,11.08,11.08,0,0,1,1.23.41,10.26,10.26,0,0,1,1.25.61c-.17.61-.26.92-.43,1.54l-.85-.25c0-.41,0-.62,0-1l-.14-.22a3.21,3.21,0,0,0-.45-.24A2.78,2.78,0,0,0,82.2,13a3,3,0,0,0-2.28.18A2.39,2.39,0,0,0,78.8,15,2.67,2.67,0,0,0,79.18,17a3.12,3.12,0,0,0,1.88,1.18l.25.06.36.07c.19-.74.28-1.12.47-1.86L82,16.32l-.84-.27Z"/><path class="cls-1" d="M85.32,16.7a2.73,2.73,0,0,1,1.93-1.92,4,4,0,0,1,1.44-.11,5.55,5.55,0,0,1,1.58.42,5.35,5.35,0,0,1,1.32.78,4.46,4.46,0,0,1,.94,1.05,3.31,3.31,0,0,1,.53,1.51,3,3,0,0,1-.27,1.49A2.85,2.85,0,0,1,91.92,21a3.07,3.07,0,0,1-1.27.57,4.13,4.13,0,0,1-1.32.06A5.4,5.4,0,0,1,88,21.28a4.72,4.72,0,0,1-2.34-1.91A3.19,3.19,0,0,1,85.32,16.7Zm4.75-1a2,2,0,0,0-1.84,0A2.66,2.66,0,0,0,87,17.32a3.19,3.19,0,0,0-.08,2.1,2,2,0,0,0,1.2,1.29,2,2,0,0,0,1.72,0,2.93,2.93,0,0,0,1.31-1.53,3,3,0,0,0,.21-2.1A2.15,2.15,0,0,0,90.07,15.66Z"/><path class="cls-1" d="M94.74,17.38c1.3.69,1.94,1.05,3.2,1.83l-.22.4-.7-.37-.22,0-1.54,2.89A1.81,1.81,0,0,0,95,23.56a2.33,2.33,0,0,0,1,1.13,1.49,1.49,0,0,0,2.44-.55l1.65-2.66-.07-.25-.65-.51.23-.39c1,.66,1.46,1,2.41,1.71l-.26.38c-.26-.18-.39-.26-.66-.43l-.23,0c-.7,1.09-1.05,1.63-1.74,2.72a2.19,2.19,0,0,1-1.62,1.15,3.86,3.86,0,0,1-2.25-.81,5.52,5.52,0,0,1-1.17-.94,2.7,2.7,0,0,1-.6-1,1.92,1.92,0,0,1,0-.79,4.18,4.18,0,0,1,.38-1l1.45-2.89-.1-.21-.69-.42Z"/><path class="cls-1" d="M102.51,22.37c1.27,1,1.89,1.48,3.09,2.54a5,5,0,0,1,1.46,1.89,1.34,1.34,0,0,1-.2,1.44,1.14,1.14,0,0,1-1.08.39,3.69,3.69,0,0,1-1.53-.69,3.59,3.59,0,0,1,.44.7,1.59,1.59,0,0,1,.16.64,3.06,3.06,0,0,1-.22,1.07,4.69,4.69,0,0,0-.14.47,1.2,1.2,0,0,0,0,.73,2.85,2.85,0,0,0,.57.79l.11.11-.3.32-.48-.42c-.15-.13-.28-.26-.41-.39a3.79,3.79,0,0,1-.45-.54,2.2,2.2,0,0,1-.26-.54,2.47,2.47,0,0,1,0-1.42,1.2,1.2,0,0,0,.06-.17,2.38,2.38,0,0,0,.08-1.32,2.36,2.36,0,0,0-.77-1l-.16-.14-1.24,1.67a1.68,1.68,0,0,0,.06.24l.52.52-.28.36c-1-.88-1.52-1.31-2.58-2.11.11-.15.16-.23.26-.38l.58.39h.24l2.84-4.05a1.7,1.7,0,0,1-.09-.24l-.58-.51Zm1.79,2.11-1.44,1.94.13.12.2.18a3.07,3.07,0,0,0,1.32.76,1,1,0,0,0,.95-.39,1,1,0,0,0,.19-1,2.76,2.76,0,0,0-.89-1.19Z"/><path class="cls-1" d="M104.91,32.82l.3-.34.59.52H106l3.35-3.54a1.33,1.33,0,0,1,0-.21l-.57-.68.3-.32c1,1,1.45,1.55,2.38,2.65l-.19.17c-.65,1.83-1,2.72-1.76,4.48,1.73-.5,2.61-.72,4.4-1.1l.2-.17c.87,1.2,1.29,1.82,2.1,3.09l-.35.26c-.22-.31-.33-.47-.56-.77l-.19,0-3.83,3a1.42,1.42,0,0,1,0,.2c.18.3.27.45.44.76l-.36.27c-.76-1.2-1.16-1.78-2-2.9l.34-.29.5.61h.19l3.78-3.1a53.28,53.28,0,0,0-5.83,1.41l-.56-.7c1-2.29,1.43-3.46,2.25-5.86l-3.39,3.47a2.17,2.17,0,0,1,0,.26l.46.62-.32.32C106,34,105.67,33.61,104.91,32.82Z"/><path class="cls-1" d="M111.66,41.55l.36-.26c.18.25.27.38.45.65l.22.1,4-2.77c0-.11,0-.16,0-.27l-.41-.77.35-.26a52.06,52.06,0,0,1,3.52,6.48l-1.23.68c-.17-.36-.26-.54-.44-.9l.58-.63c0-.08,0-.12,0-.2-.53-1-.8-1.57-1.36-2.58L115.87,42c.36.64.53,1,.87,1.61l.2.1.62-.2c.15.3.23.45.38.76l-1.81,1c-.14-.29-.22-.44-.37-.73l.5-.46a1.79,1.79,0,0,1,0-.23c-.34-.65-.51-1-.86-1.59l-2,1.28c.6,1.08.89,1.63,1.45,2.76l.19.07.93-.27.4.86-1.41.77A48.41,48.41,0,0,0,111.66,41.55Z"/><path class="cls-1" d="M120.6,45.53a57.65,57.65,0,0,1,3.13,8.38l-1.48.52c-.13-.41-.19-.62-.32-1l.81-.59c0-.1,0-.15,0-.26-.23-.71-.35-1.07-.6-1.77l-4.49,1.86-.05.28c.1.36.16.54.26.9l-.41.15c-.54-1.6-.84-2.39-1.46-3.9l.39-.19c.16.32.23.49.38.82l.22.16,4.43-2c-.27-.68-.41-1-.69-1.68l-.19-.16-1,.2c-.16-.37-.24-.56-.41-.93Z"/><path class="cls-1" d="M124.89,59.17l-.06-.38h-2l.08.52a55.58,55.58,0,1,1-109.8,0l.08-.52h-2l-.06.38a57.52,57.52,0,1,0,114.37,8.76A58.41,58.41,0,0,0,124.89,59.17Z"/></g></g></svg>