<svg id="Logo_-_Sem_fundo" data-name="Logo - Sem fundo" xmlns="http://www.w3.org/2000/svg" width="803" height="803" viewBox="0 0 803 803">
  <g id="Layer_1" data-name="Layer 1">
    <path id="Caminho_373" data-name="Caminho 373" d="M401.5,803C179.758,803,0,623.243,0,401.5S179.758,0,401.5,0,803,179.758,803,401.5C802.757,623.142,623.142,802.757,401.5,803Zm0-791.948C185.762,11.052,10.947,185.88,10.964,401.53c0,215.621,174.828,390.435,390.478,390.419,215.621,0,390.435-174.828,390.419-390.478C791.6,185.979,616.992,11.344,401.5,11.052Z" transform="translate(0 0)" fill="#fff"/>
    <path id="Caminho_374" data-name="Caminho 374" d="M129.066,58.986a179.84,179.84,0,0,1,74.8-21.132,13.174,13.174,0,0,1,2.3-8.842,18.468,18.468,0,0,1,1.238-1.5A189.742,189.742,0,0,0,125.53,49.526C86.273,70.3,51.967,105.051,23.674,152.885c0,0-1.415,4.156,1.415,6.012a5.924,5.924,0,0,0,5.835,0C58.245,112.655,91.224,78.968,129.066,58.986Z" transform="translate(182.868 215.724)" fill="#fff"/>
    <path id="Caminho_375" data-name="Caminho 375" d="M226.523,159.626c5.57-.619,2.653-7.339,2.653-7.339-9.461-27.674-32.8-56.764-64.1-79.575A236.338,236.338,0,0,0,51.635,27.62H46.86a24.58,24.58,0,0,1,2.387,10.256h1.5c64.9,6.808,148.717,54.73,171,120.335C221.748,157.946,222.544,159.449,226.523,159.626Z" transform="translate(367.461 216.587)" fill="#fff"/>
    <ellipse id="Elipse_43" data-name="Elipse 43" cx="13.705" cy="15.031" rx="13.705" ry="15.031" transform="translate(388.149 206.011)" fill="#fff"/>
    <ellipse id="Elipse_44" data-name="Elipse 44" cx="11.052" cy="12.202" rx="11.052" ry="12.202" transform="translate(390.802 240.14)" fill="#fff"/>
    <path id="Caminho_376" data-name="Caminho 376" d="M36.917,62.745l-.442-12.2c-.619-4.6-3.448-8.842-7.6-7.869l-6.189,4.775c-4.156.619-1.149,12.2-1.149,12.2.707,4.509,6.278,11.583,10.345,10.964S37.624,67.254,36.917,62.745Z" transform="translate(160.606 333.539)" fill="#fff"/>
    <path id="Caminho_377" data-name="Caminho 377" d="M30.132,51.77c0-1.768-1.415-3.36-3.095-3.095l-2.476,1.857c-1.68,0,0,4.951,0,4.951,0,1.857,2.476,4.686,4.156,4.421s2.3-1.326,2.034-3.183Z" transform="translate(186.754 381.472)" fill="#fff"/>
    <path id="Caminho_378" data-name="Caminho 378" d="M26.924,46.93c-1.68,0-3.89,4.067-2.564,6.366a13.439,13.439,0,0,0,10.256,7.073,12.025,12.025,0,0,0,12.644-5.04A3.8,3.8,0,0,0,45.491,50.2Z" transform="translate(187.841 368.01)" fill="#fff"/>
    <path id="Caminho_379" data-name="Caminho 379" d="M33.172,56.685a18.391,18.391,0,0,1,3.537-7.25,6.278,6.278,0,0,0,0-4.421,7.25,7.25,0,0,0-8.842,0,9.9,9.9,0,0,0-4.421,11.671A14.235,14.235,0,0,0,36.355,68.444a37.577,37.577,0,0,1-3.183-11.759Z" transform="translate(179.913 341.19)" fill="#fff"/>
    <path id="Caminho_380" data-name="Caminho 380" d="M47.136,47.246c2.3-2.122,7.162-5.482,8.842-7.692a20.336,20.336,0,0,0-.884-15.915,37.665,37.665,0,0,0-8.842-5.217c-2.564-.442-3.271,3.36-3.271,3.36V43.444C42.98,45.3,44.925,49.279,47.136,47.246Z" transform="translate(337.035 144.177)" fill="#fff"/>
    <path id="Caminho_381" data-name="Caminho 381" d="M47.6,39.553c1.857,2.21,6.808,5.57,8.842,7.692s3.89-1.857,3.89-3.8V21.782s-.707-3.8-3.271-3.36a37.666,37.666,0,0,0-8.842,5.217A20.336,20.336,0,0,0,47.6,39.553Z" transform="translate(362.832 144.177)" fill="#fff"/>
    <path id="Caminho_382" data-name="Caminho 382" d="M50.673,31.155a5.924,5.924,0,0,0,3.8,1.238h1.857a5.924,5.924,0,0,0,3.979-1.238,98.226,98.226,0,0,0,6.012-9.549c1.68-2.3-1.415-4.156-2.918-4.156H47.579c-1.5,0-4.6,1.857-2.918,4.156a98.225,98.225,0,0,0,6.012,9.549Z" transform="translate(346.406 136.837)" fill="#fff"/>
    <path id="Caminho_383" data-name="Caminho 383" d="M54.5,36.041h8.842c1.5,0,4.6-1.857,2.918-4.156a110.248,110.248,0,0,0-6.1-9.637,6.543,6.543,0,0,0-3.8-1.238H54.5a6.543,6.543,0,0,0-3.8,1.238A110.263,110.263,0,0,0,44.681,31.8C43,34.1,46.1,35.952,47.6,35.952Z" transform="translate(346.563 164.754)" fill="#fff"/>
    <path id="Caminho_384" data-name="Caminho 384" d="M51.879,75.066V71.353C50.2,60.124,48.961,57.56,45.159,57.56L30.04,60.212,44.452,79.134C48.254,79.134,51.879,79.134,51.879,75.066Z" transform="translate(235.564 451.367)" fill="#fff"/>
    <path id="Caminho_385" data-name="Caminho 385" d="M29.7,46.4,21.92,47.815l7.6,9.549c2.034,0,3.89,0,3.89-1.945V53.473C32.265,47.726,31.469,46.4,29.7,46.4Z" transform="translate(171.889 363.854)" fill="#fff"/>
    <path id="Caminho_386" data-name="Caminho 386" d="M82.016,47.432l-6.189-4.775c-4.156-.619-6.985,3.271-7.692,7.781v12.2c-.707,4.6.884,7.25,4.951,7.869s9.726-6.366,10.345-10.964C83.077,59.545,85.906,48.051,82.016,47.432Z" transform="translate(533.011 333.997)" fill="#fff"/>
    <path id="Caminho_387" data-name="Caminho 387" d="M71.409,50.625,68.845,48.68c-1.68,0-2.741,1.326-3.095,3.183v4.951c0,1.768,0,2.918,1.945,3.095s3.89-2.564,4.244-4.421C71.851,55.488,73,50.89,71.409,50.625Z" transform="translate(515.59 381.733)" fill="#fff"/>
    <path id="Caminho_388" data-name="Caminho 388" d="M64.029,55.309a12.2,12.2,0,0,0,12.732,5.128,13.616,13.616,0,0,0,10.256-7.073c1.238-2.387-.884-6.72-2.564-6.366L65.886,50.181a3.8,3.8,0,0,0-1.857,5.128Z" transform="translate(499.097 368.384)" fill="#fff"/>
    <path id="Caminho_389" data-name="Caminho 389" d="M75.041,45.034a7.25,7.25,0,0,0-8.842,0,5.924,5.924,0,0,0,0,4.421,16.8,16.8,0,0,1,3.448,7.339,36.781,36.781,0,0,1-3.006,11.14A14.147,14.147,0,0,0,79.2,56.528a9.814,9.814,0,0,0-4.156-11.494Z" transform="translate(515.759 341.347)" fill="#fff"/>
    <path id="Caminho_390" data-name="Caminho 390" d="M67.25,53.613v1.945c0,2.122,1.857,1.945,3.8,1.945l7.692-9.637L70.964,46.54C68.753,46.54,68.134,47.866,67.25,53.613Z" transform="translate(527.352 364.951)" fill="#fff"/>
    <path id="Caminho_391" data-name="Caminho 391" d="M30.151,59.5a10.168,10.168,0,1,0-9.637-10.168A9.9,9.9,0,0,0,30.151,59.5Z" transform="translate(160.829 307.249)" fill="#fff"/>
    <path id="Caminho_392" data-name="Caminho 392" d="M31.8,56.874a10.168,10.168,0,1,0-9.637-10.168A9.9,9.9,0,0,0,31.8,56.874Z" transform="translate(173.768 286.625)" fill="#fff"/>
    <ellipse id="Elipse_45" data-name="Elipse 45" cx="9.637" cy="10.168" rx="9.637" ry="10.168" transform="translate(215.737 299.998)" fill="#fff"/>
    <ellipse id="Elipse_46" data-name="Elipse 46" cx="9.637" cy="10.168" rx="9.637" ry="10.168" transform="translate(235.896 278.071)" fill="#fff"/>
    <ellipse id="Elipse_47" data-name="Elipse 47" cx="9.637" cy="10.168" rx="9.637" ry="10.168" transform="translate(255.79 260.387)" fill="#fff"/>
    <ellipse id="Elipse_48" data-name="Elipse 48" cx="9.637" cy="10.168" rx="9.637" ry="10.168" transform="translate(280.104 245.003)" fill="#fff"/>
    <ellipse id="Elipse_49" data-name="Elipse 49" cx="9.637" cy="10.168" rx="9.637" ry="10.168" transform="translate(307.867 230.679)" fill="#fff"/>
    <ellipse id="Elipse_50" data-name="Elipse 50" cx="9.637" cy="10.168" rx="9.637" ry="10.168" transform="translate(335.011 220.865)" fill="#fff"/>
    <path id="Caminho_393" data-name="Caminho 393" d="M50.981,44.614a10.168,10.168,0,1,0-9.637-10.168,9.9,9.9,0,0,0,9.637,10.168Z" transform="translate(324.171 190.486)" fill="#fff"/>
    <path id="Caminho_394" data-name="Caminho 394" d="M78.308,39.18A10.168,10.168,0,1,0,88.476,49.348,10.168,10.168,0,0,0,78.308,39.18Z" transform="translate(534.331 307.237)" fill="#fff"/>
    <path id="Caminho_395" data-name="Caminho 395" d="M76.191,56.874a10.168,10.168,0,1,0-9.637-10.168A9.9,9.9,0,0,0,76.191,56.874Z" transform="translate(521.86 286.625)" fill="#fff"/>
    <ellipse id="Elipse_51" data-name="Elipse 51" cx="9.637" cy="10.168" rx="9.637" ry="10.168" transform="translate(568.608 299.998)" fill="#fff"/>
    <ellipse id="Elipse_52" data-name="Elipse 52" cx="9.637" cy="10.168" rx="9.637" ry="10.168" transform="translate(548.449 278.071)" fill="#fff"/>
    <ellipse id="Elipse_53" data-name="Elipse 53" cx="9.637" cy="10.168" rx="9.637" ry="10.168" transform="translate(528.555 260.387)" fill="#fff"/>
    <ellipse id="Elipse_54" data-name="Elipse 54" cx="9.637" cy="10.168" rx="9.637" ry="10.168" transform="translate(504.24 245.003)" fill="#fff"/>
    <ellipse id="Elipse_55" data-name="Elipse 55" cx="9.637" cy="10.168" rx="9.637" ry="10.168" transform="translate(476.478 230.679)" fill="#fff"/>
    <ellipse id="Elipse_56" data-name="Elipse 56" cx="9.637" cy="10.168" rx="9.637" ry="10.168" transform="translate(449.334 220.865)" fill="#fff"/>
    <path id="Caminho_396" data-name="Caminho 396" d="M47.373,34.458A9.637,9.637,0,1,0,57.011,24.29,9.9,9.9,0,0,0,47.373,34.458Z" transform="translate(371.457 190.474)" fill="#fff"/>
    <path id="Caminho_397" data-name="Caminho 397" d="M125.368,61.2H51.54a5.482,5.482,0,0,0,.707,8.4h73.121a3.537,3.537,0,0,0,3.625-3.537V64.738a3.537,3.537,0,0,0-3.625-3.537Z" transform="translate(391.339 479.909)" fill="#fff"/>
    <path id="Caminho_398" data-name="Caminho 398" d="M58.75,71.353v3.713c0,4.244,3.625,3.89,7.427,3.89L81.031,60.212,65.912,57.56C61.579,57.56,60.43,60.124,58.75,71.353Z" transform="translate(460.698 451.367)" fill="#fff"/>
    <path id="Caminho_399" data-name="Caminho 399" d="M56.664,30.931A11.494,11.494,0,1,0,67.008,42.337,10.964,10.964,0,0,0,56.664,30.931Z" transform="translate(345.19 242.1)" fill="#fff"/>
    <path id="Caminho_400" data-name="Caminho 400" d="M150.767,67.569S59.609,52.627,54.923,54.307,50.5,59.789,50.5,59.789a6.366,6.366,0,0,0,5.835,5.393,673.489,673.489,0,0,1,94.341,13.086,8.223,8.223,0,0,0,7.6-5.217S161.554,68.984,150.767,67.569Z" transform="translate(396.002 424.823)" fill="#fff"/>
    <path id="Caminho_401" data-name="Caminho 401" d="M139.767,82.267a261.629,261.629,0,0,0-32.626-17.683A355.781,355.781,0,0,0,59.573,46.9c-2.918,0-3.271,3.714-3.183,7.073a302.119,302.119,0,0,1,79.045,34.217C141.889,89.517,142.243,82.62,139.767,82.267Z" transform="translate(442.103 367.774)" fill="#fff"/>
    <path id="Caminho_402" data-name="Caminho 402" d="M107.025,68.528,70.686,50.845C64.232,49.165,61.137,55.8,59.1,61.72c-1.326,10.875,1.768,13.616,6.543,15.3L99.952,88.51c3.537.8,10.787-8.842,10.787-8.842a7.957,7.957,0,0,0-3.713-11.14Z" transform="translate(461.052 396.632)" fill="#fff"/>
    <path id="Caminho_403" data-name="Caminho 403" d="M47.229,134.921a35.9,35.9,0,0,0,5.659,13.262A32.184,32.184,0,0,0,67.211,159.5a53.581,53.581,0,0,0,21.662,3.714,43.5,43.5,0,0,0,33.687-11.583,55.26,55.26,0,0,0,10.522-37.223V49.864l2.3-3.183,10.168-1.149V36.69H107.175v8.842l10.7,1.149,2.564,3.183v62.6a49.69,49.69,0,0,1-6.012,27.851,22.016,22.016,0,0,1-19.363,8.842A25.022,25.022,0,0,1,74.2,141.11a43.059,43.059,0,0,1-6.366-26.525V49.068L70.217,46.5l10.345-.973V36.69H32.64v8.842l10.522.973,2.387,2.564v64.367a101.765,101.765,0,0,0,1.68,21.485Z" transform="translate(255.952 287.711)" fill="#fff"/>
    <path id="Caminho_404" data-name="Caminho 404" d="M153.291,161.338v-9.019l-12.025-1.238L105.811,89.19l31.653-42.175,11.671-1.326V36.67H111.558v9.019l9.372.973.973,2.387L85.741,98.031H81.055V49.225l2.652-2.564,9.814-.973V36.67H46.13v9.019l10.168.973,2.564,2.564V148.34L56.3,151.258,46.13,152.319v9.019H93.521v-9.019l-9.814-1.061-2.652-2.918V106.7h9.637l28.028,48.1v6.543Z" transform="translate(361.736 287.554)" fill="#fff"/>
    <path id="Caminho_405" data-name="Caminho 405" d="M55.334,52.83c-16.534,11.229-13.086,37.312,0,61.892C70.1,84.395,70.188,65.3,55.334,52.83Z" transform="translate(346.52 414.275)" fill="#fff"/>
    <path id="Caminho_406" data-name="Caminho 406" d="M78.91,82.746A29.885,29.885,0,0,0,63.172,58.431a14.942,14.942,0,0,0-21.043,8.046,14.412,14.412,0,0,0,6.72,20.159C53,72.313,62.73,70.81,78.91,82.746Z" transform="translate(316.135 444.483)" fill="#fff"/>
    <path id="Caminho_407" data-name="Caminho 407" d="M81.648,66.045A14.147,14.147,0,0,0,64.672,57.2a23.7,23.7,0,0,0-18.3,22.546,44.208,44.208,0,0,1,16.976-4.421c4.951.8,8.842,6.278,14.147,10.168a14.942,14.942,0,0,0,4.156-19.452Z" transform="translate(363.618 444.739)" fill="#fff"/>
    <path id="Caminho_408" data-name="Caminho 408" d="M83.625,63.6a53.581,53.581,0,0,0-40.495.973C55.066,72.792,75.933,72.262,83.625,63.6Z" transform="translate(338.211 471.236)" fill="#fff"/>
    <path id="Caminho_409" data-name="Caminho 409" d="M50.824,95.375a26.525,26.525,0,0,0,0-33.775,26.525,26.525,0,0,0,0,33.775Z" transform="translate(350.942 483.047)" fill="#fff"/>
    <path id="Caminho_410" data-name="Caminho 410" d="M56.083,74.165a10.61,10.61,0,0,0,11.583-7.958L46.18,62.14C47.86,66.472,48.39,73.192,56.083,74.165Z" transform="translate(362.128 487.281)" fill="#fff"/>
    <path id="Caminho_411" data-name="Caminho 411" d="M54.158,74.076c6.9-1.415,7.781-7.6,9.284-11.936L42.31,66.3C44.344,70.54,47.438,75.4,54.158,74.076Z" transform="translate(331.781 487.281)" fill="#fff"/>
    <path id="Caminho_412" data-name="Caminho 412" d="M136.255,59.837s1.326-3.448-4.421-5.482S36.079,67.618,36.079,67.618C25.292,69.032,28.564,73.1,28.564,73.1a8.223,8.223,0,0,0,7.6,5.217A673.462,673.462,0,0,1,130.42,65.23,6.454,6.454,0,0,0,136.255,59.837Z" transform="translate(220.329 424.775)" fill="#fff"/>
    <path id="Caminho_413" data-name="Caminho 413" d="M104.274,54.072a2.123,2.123,0,0,1,.531-.973c2.21-2.829.8-6.278-2.918-5.835h-.973a332.17,332.17,0,0,0-42,15.561A261.626,261.626,0,0,0,26.29,80.509c-2.476,0-2.122,7.25,4.332,6.631a297.522,297.522,0,0,1,73.386-33.068Z" transform="translate(195.017 370.328)" fill="#fff"/>
    <path id="Caminho_414" data-name="Caminho 414" d="M78.8,61.76C76.762,55.836,73.667,49.2,67.213,50.885L30.874,68.568A7.958,7.958,0,0,0,27.16,79.974s7.25,9.726,10.787,8.842L72.253,77.321C77.116,75.376,80.21,72.635,78.8,61.76Z" transform="translate(204.138 396.946)" fill="#fff"/>
    <path id="Caminho_415" data-name="Caminho 415" d="M35.665,61.2a3.625,3.625,0,0,0-3.625,3.537v1.326A3.625,3.625,0,0,0,35.665,69.6h73.121a5.482,5.482,0,0,0,.707-8.4Z" transform="translate(251.247 479.91)" fill="#fff"/>
    <path id="Caminho_416" data-name="Caminho 416" d="M56.9,112.856l-.354.354H42.577V75.279l.442-.265,4.863-.531V69.09H27.9v5.393l5.217.531.442.265v37.666l-.354.265-5.305.442v5.482H64.416V103.572H58.227Z" transform="translate(218.783 541.781)" fill="#fff"/>
    <path id="Caminho_417" data-name="Caminho 417" d="M73.1,75.534a22.989,22.989,0,0,0-7.6-4.951,24.844,24.844,0,0,0-17.683,0,22.634,22.634,0,0,0-7.6,4.951,23.077,23.077,0,0,0-5.659,8.842A29.178,29.178,0,0,0,32.6,95.339a29.974,29.974,0,0,0,1.945,11.052,23.253,23.253,0,0,0,5.747,8.842,22.46,22.46,0,0,0,7.515,4.863,24.668,24.668,0,0,0,8.842,1.591A22.988,22.988,0,0,0,77.077,110.1a26.526,26.526,0,0,0,2.829-6.9,30.59,30.59,0,0,0,.884-7.692,31.036,31.036,0,0,0-1.857-10.964A24.4,24.4,0,0,0,73.1,75.534ZM70.623,95.162a23.7,23.7,0,0,1-3.979,14.5,12.378,12.378,0,0,1-20.159,0,23.7,23.7,0,0,1-3.979-14.5A24.4,24.4,0,0,1,46.4,80.574a12.025,12.025,0,0,1,10.168-5.128,11.583,11.583,0,0,1,10.08,5.217A23.7,23.7,0,0,1,70.623,95.162Z" transform="translate(255.635 540.73)" fill="#fff"/>
    <path id="Caminho_418" data-name="Caminho 418" d="M70.51,74.395l4.951.8.619.53v28.116l-21.4-32.1V69.09h-16v5.393l5.3.531.531.354V112.5l-.619.53-5.04.707v5.393H56.54V113.74l-4.951-.707-.619-.53V82.176l24.845,36.958h6.72V75.721l.531-.53,5.04-.8V69.09H70.51Z" transform="translate(303.316 541.781)" fill="#fff"/>
    <path id="Caminho_419" data-name="Caminho 419" d="M64.016,69.224H44.83v5.393l4.775.53h.442v37.666H44.83v5.482H64.016a43.593,43.593,0,0,0,10.61-1.061,20.6,20.6,0,0,0,7.427-3.537,23.341,23.341,0,0,0,7.073-8.842,28.913,28.913,0,0,0,2.3-11.671,23.608,23.608,0,0,0-7.25-18.479,29.089,29.089,0,0,0-20.159-5.482ZM81.7,94.245a20.512,20.512,0,0,1-4.421,14.412,17.683,17.683,0,0,1-13.439,4.686H59.6v-38.2H63.84a17.684,17.684,0,0,1,13.439,4.6,20.6,20.6,0,0,1,3.89,14.5Z" transform="translate(351.542 541.647)" fill="#fff"/>
    <path id="Caminho_420" data-name="Caminho 420" d="M91.358,75.534a22.988,22.988,0,0,0-7.6-4.951,24.845,24.845,0,0,0-17.683,0,22.634,22.634,0,0,0-7.6,4.951,23.077,23.077,0,0,0-5.659,8.842,29.178,29.178,0,0,0-1.945,10.964,29.973,29.973,0,0,0,1.945,11.052,23.7,23.7,0,0,0,13.263,13.528,24.669,24.669,0,0,0,8.842,1.591,22.988,22.988,0,0,0,20.424-11.583,27.672,27.672,0,0,0,2.829-6.9,30.508,30.508,0,0,0,.973-7.692,31.035,31.035,0,0,0-1.945-10.964,26.523,26.523,0,0,0-5.835-8.842ZM88.883,95.162a23.7,23.7,0,0,1-3.979,14.5,12.378,12.378,0,0,1-20.159,0,23.7,23.7,0,0,1-3.8-14.5,24.4,24.4,0,0,1,3.89-14.589A12.025,12.025,0,0,1,75,75.445a11.583,11.583,0,0,1,10.08,5.217A23.7,23.7,0,0,1,88.883,95.162Z" transform="translate(398.824 540.731)" fill="#fff"/>
    <path id="Caminho_421" data-name="Caminho 421" d="M88.77,69.09v5.305l4.951.8.619.53v28.116l-21.4-32.1V69.09h-16v5.393l5.393.531.354.354V112.5l-.531.53-5.04.707v5.393H74.8V113.74l-4.951-.707-.619-.53V82.176l24.845,36.958h6.72V75.721l.619-.53,4.951-.8V69.09Z" transform="translate(446.505 541.781)" fill="#fff"/>
    <path id="Caminho_422" data-name="Caminho 422" d="M6.64,74.7C10.088,63.3,11.945,57.816,16.012,47.03a37.666,37.666,0,0,1,7.781-13.881,6.454,6.454,0,0,1,7.869-1.768,6.985,6.985,0,0,1,3.625,5.482,27.232,27.232,0,0,1-.8,10.256A24.226,24.226,0,0,1,41.3,37.127a6.808,6.808,0,0,1,7.515-.884,9.461,9.461,0,0,1,4.863,8.842,40.848,40.848,0,0,1-3.448,16.092c-3.714,9.9-5.482,15.031-8.842,25.552L39,86.2l1.326-5.128a14.319,14.319,0,0,1,0-1.68L12.387,68.957l-1.238,1.149c-.8,2.21-1.238,3.271-1.945,5.482ZM28.125,61.8V61a10.612,10.612,0,0,1,.884-1.326,26.525,26.525,0,0,0,2.122-10.522,6.278,6.278,0,0,0-3.625-5.659,4.774,4.774,0,0,0-5.57.973,23.43,23.43,0,0,0-4.951,8.842,21.963,21.963,0,0,1-1.061,3.36h0Zm16.18,6.72h0c.619-1.592,1.149-2.829,1.415-3.625a29.177,29.177,0,0,0,2.387-11.14,6.543,6.543,0,0,0-3.89-5.659,5.305,5.305,0,0,0-6.012.884A20.689,20.689,0,0,0,32.9,57.816L31.839,61a9.262,9.262,0,0,1-.884,2.476Z" transform="translate(52.069 240.944)" fill="#fff"/>
    <path id="Caminho_423" data-name="Caminho 423" d="M9.06,63.484c4.775-10.168,7.25-15.119,12.555-24.757a35.367,35.367,0,0,1,9.814-12.2,7.073,7.073,0,0,1,8.842,0,8.046,8.046,0,0,1,3.095,6.9,27.763,27.763,0,0,1-2.829,11.229,22.811,22.811,0,0,1,3.8-3.89,9.461,9.461,0,0,1,3.537-1.768,16.092,16.092,0,0,1,6.366,0,16.71,16.71,0,0,0,2.918.442,5.924,5.924,0,0,0,4.156-.884,16.092,16.092,0,0,0,3.8-4.509l.531-.884,2.21,1.68-2.034,3.714-1.945,3.183a23.341,23.341,0,0,1-2.829,3.625,11.583,11.583,0,0,1-2.918,2.387,12.2,12.2,0,0,1-8.311,1.415h-.973a11.759,11.759,0,0,0-7.692.973,17.065,17.065,0,0,0-5.217,6.454,9.637,9.637,0,0,1-.707,1.326l10.7,6.543,1.415-.707,2.564-4.244,2.3,1.415c-4.332,8.046-6.454,12.2-10.433,20.778l-2.3-1.326,1.768-4.6v-1.68L15.338,59.064l-1.326.973c-1.061,1.857-1.5,2.829-2.564,4.775ZM20.112,48.277l12.378,7.6a6.63,6.63,0,0,0,.619-1.061l.884-1.68a24.314,24.314,0,0,0,3.448-10.256,6.543,6.543,0,0,0-3.006-6.012,5.128,5.128,0,0,0-6.1,0,19.275,19.275,0,0,0-6.278,7.515Z" transform="translate(71.046 195.842)" fill="#fff"/>
    <path id="Caminho_424" data-name="Caminho 424" d="M42.1,65.052l-2.122-1.68,2.741-4.6V57.182L19.463,38.526l-1.5.619c-1.326,1.857-2.034,2.741-3.448,4.6l-2.122-1.68c5.836-8.842,8.842-12.909,15.119-21.043l2.034,1.857-3.271,4.686v1.68L48.995,48.871l1.415-.442,3.448-3.979,2.034,1.857A208.792,208.792,0,0,0,42.1,65.052Z" transform="translate(97.158 164.832)" fill="#fff"/>
    <path id="Caminho_425" data-name="Caminho 425" d="M40.362,42.369c6.366-6.72,9.549-9.991,16.269-16.18L58.4,28.4,55.3,31.671a8.843,8.843,0,0,0,0,1.5l8.842,10.168a75.859,75.859,0,0,1-4.951,7.339c-1.68,2.21-3.448,4.332-5.217,6.278A33.245,33.245,0,0,1,37.268,67.48a16.18,16.18,0,0,1-16.446-3.448,16.8,16.8,0,0,1-5.04-16A38.638,38.638,0,0,1,26.834,27.692a56.94,56.94,0,0,1,6.278-5.836,67.55,67.55,0,0,1,7.339-5.217l6.189,7.427L42.4,28.223l-5.04-3.448h-1.5l-2.829,1.768a21.571,21.571,0,0,0-2.564,2.387,22.723,22.723,0,0,0-6.985,13.881,15.031,15.031,0,0,0,4.775,12.113,13.97,13.97,0,0,0,11.759,4.509,21.132,21.132,0,0,0,12.378-7.162l1.149-1.238,1.68-1.857-7.692-8.842H46.109l-4.244,3.979Z" transform="translate(120.645 130.485)" fill="#fff"/>
    <path id="Caminho_426" data-name="Caminho 426" d="M20.7,18.9,27.42,13.6A339.173,339.173,0,0,1,60.93,33.228l3.89-1.857,1.415,2.387C59.78,38,56.6,40.3,50.32,44.988l-1.592-2.3,3.537-3.006V38.71c-3.537-2.21-5.305-3.36-8.842-5.482-5.217,3.979-7.869,6.012-12.909,10.256.884,4.332,1.326,6.454,2.3,10.7h1.061l3.8-2.652,1.591,2.21c-4.774,4.067-7.162,6.1-11.848,10.433l-1.768-2.21,3.006-3.36A390.8,390.8,0,0,1,20.7,18.9Zm5.924,5.305c1.061,6.366,1.68,9.549,3.006,15.738,4.156-3.448,6.278-5.128,10.522-8.311C34.847,28.542,32.194,27.039,26.624,24.21Z" transform="translate(162.323 106.647)" fill="#fff"/>
    <path id="Caminho_427" data-name="Caminho 427" d="M43.427,15.357a32.272,32.272,0,0,1,20.6-5.128,15.3,15.3,0,0,1,12.2,10.08,19.187,19.187,0,0,1,1.5,9.284,21.043,21.043,0,0,1-3.271,8.842,23.961,23.961,0,0,1-5.128,5.747,56.055,56.055,0,0,1-8.311,5.57c-7.162,4.067-10.787,6.278-17.683,10.875l-1.415-2.387L45.461,55.5a1.7,1.7,0,0,1,.53-1.415c-6.012-10.61-8.842-15.915-15.119-26.525h-1.5l-4.156,2.387-1.5-2.387A210.5,210.5,0,0,1,43.427,15.357Zm-4.156,6.189,15.119,28.47,3.625-2.122a19.452,19.452,0,0,0,9.461-9.726,16.976,16.976,0,0,0-1.238-13.086A14.766,14.766,0,0,0,57.4,16.241a18.567,18.567,0,0,0-13.881,3.095Z" transform="translate(185.926 79.16)" fill="#fff"/>
    <path id="Caminho_428" data-name="Caminho 428" d="M44.252,57.444,43.191,54.88l3.89-2.034.707-1.326L36.295,22.7H34.88l-4.509,1.592L29.31,21.547A295.4,295.4,0,0,1,66.18,7.4c.973,3.537,1.5,5.305,2.476,8.842L63.7,17.922l-2.741-4.509L59.9,12.7C54.067,14.65,51.061,15.8,45.4,18.01L50,31.1c3.625-1.5,5.482-2.122,8.842-3.448l.707-1.149a11.681,11.681,0,0,0-.531-4.244l4.244-1.415,3.979,12.909-4.067,1.326L61.14,31.361,59.9,30.919l-8.842,3.448,5.128,14.147c6.1-2.387,8.842-3.537,15.473-5.57l.53-1.149a21.353,21.353,0,0,0-.619-6.278l4.686-1.5,3.36,10.168A261.8,261.8,0,0,0,44.252,57.444Z" transform="translate(229.839 58.028)" fill="#fff"/>
    <path id="Caminho_429" data-name="Caminho 429" d="M44.34,50.089l-.707-2.829,4.421-1.592.884-1.149L41.422,14.458l-1.415-.531-5.04,1.149-.707-2.741C43.1,9.683,47.7,8.534,56.718,6.5a5.392,5.392,0,0,0,.531,2.829L52.3,10.921l-.973,1.061c2.652,12.2,4.067,18.214,6.72,30.327l1.326.619,4.6-.707.619,2.741C56.453,46.288,52.385,47.7,44.34,50.089Z" transform="translate(268.656 50.971)" fill="#fff"/>
    <path id="Caminho_430" data-name="Caminho 430" d="M37.28,10.518c8.842-1.945,13.793-2.741,23.165-4.156a27.056,27.056,0,0,1,13.616.884,7.869,7.869,0,0,1,5.217,6.985,8.311,8.311,0,0,1-2.652,6.808,20.425,20.425,0,0,1-8.842,4.509,17.683,17.683,0,0,1,4.686.8,8.046,8.046,0,0,1,3.271,1.945,17.684,17.684,0,0,1,3.271,5.217c.619,1.149,1.061,2.122,1.415,2.652a5.747,5.747,0,0,0,3.095,2.918A12.113,12.113,0,0,0,89,39.607h.884v2.829l-3.625.619H82.991a20.69,20.69,0,0,1-4.067,0,8.841,8.841,0,0,1-3.271-1.061,12.909,12.909,0,0,1-5.482-5.659v-.973a13.7,13.7,0,0,0-5.128-5.836,12.555,12.555,0,0,0-7.25-.442H56.555c.8,5.128,1.238,7.781,1.945,13l1.326.707H64.07v2.829C56.29,46.769,52.488,47.387,44.8,49.067l-.53-2.829,3.979-1.149.973-1.061c-2.21-12.29-3.271-18.391-5.482-30.592l-1.326-.619-4.509.619Zm16.092,0c.884,6.012,1.326,8.842,2.3,15.031h2.564a16.711,16.711,0,0,0,8.842-3.183,6.631,6.631,0,0,0,2.21-6.189,6.012,6.012,0,0,0-3.537-5.128,13.793,13.793,0,0,0-8.842-.707Z" transform="translate(292.338 46.069)" fill="#fff"/>
    <path id="Caminho_431" data-name="Caminho 431" d="M43.338,26.466a18.479,18.479,0,0,1,1.5-8.842,17.683,17.683,0,0,1,5.57-6.985,24.934,24.934,0,0,1,7.958-3.979,32.36,32.36,0,0,1,9.9-1.238A29.973,29.973,0,0,1,77.113,6.75a24.579,24.579,0,0,1,7.869,3.89,19.893,19.893,0,0,1,6.189,7.515A17.683,17.683,0,0,1,92.763,27a18.833,18.833,0,0,1-2.652,8.311,20.6,20.6,0,0,1-6.1,6.278,26,26,0,0,1-7.427,3.448,29.178,29.178,0,0,1-8.842,1.061,27.321,27.321,0,0,1-17.683-5.482A19.275,19.275,0,0,1,43.338,26.466ZM68.36,9.4a12.555,12.555,0,0,0-10.433,4.509,17.683,17.683,0,0,0-3.625,12.2A19.628,19.628,0,0,0,58.457,38.4a11.936,11.936,0,0,0,9.549,4.686,12.29,12.29,0,0,0,9.726-4.332,18.832,18.832,0,0,0,4.332-11.848,18.479,18.479,0,0,0-3.271-12.644A12.29,12.29,0,0,0,68.36,9.4Z" transform="translate(339.418 42.41)" fill="#fff"/>
    <path id="Caminho_432" data-name="Caminho 432" d="M77.81,27.75c8.311,2.122,12.467,3.271,20.69,5.924l-.8,2.741-4.156-.973-1.326.442C90.808,41.1,90.012,43.753,88.6,48.97a78.608,78.608,0,0,1-8.134-.531,49.247,49.247,0,0,1-7.515-1.326A29.531,29.531,0,0,1,56.679,37.3,18.745,18.745,0,0,1,52.17,21.472,16.18,16.18,0,0,1,61.807,8.829a30.769,30.769,0,0,1,20.955-.884,50.751,50.751,0,0,1,7.6,2.476,62.951,62.951,0,0,1,7.781,3.8l-2.652,9.461-5.3-1.5V15.814L89.3,14.487a12.466,12.466,0,0,0-2.829-1.5,21.751,21.751,0,0,0-17.153,0,14.766,14.766,0,0,0-6.985,10.787A16.623,16.623,0,0,0,64.725,36.68a19.452,19.452,0,0,0,11.583,7.339h3.8c1.149-4.6,1.68-6.9,2.829-11.583l-.884-1.061-5.217-1.592Z" transform="translate(406.802 51.118)" fill="#fff"/>
    <path id="Caminho_433" data-name="Caminho 433" d="M58.4,20.884a17.684,17.684,0,0,1,4.332-7.515,17.064,17.064,0,0,1,7.6-4.332,24.4,24.4,0,0,1,8.842-.619A31.83,31.83,0,0,1,88.9,10.981a35.367,35.367,0,0,1,8.223,4.775,30.858,30.858,0,0,1,5.835,6.454,21.75,21.75,0,0,1,3.271,9.372,18.391,18.391,0,0,1-1.68,8.842,17.683,17.683,0,0,1-5.393,6.808,19.275,19.275,0,0,1-7.869,3.448,22.635,22.635,0,0,1-8.134,0,28.293,28.293,0,0,1-8.311-2.21,28.824,28.824,0,0,1-14.5-11.759A19.717,19.717,0,0,1,58.4,20.884Zm29.62-6.1a12.644,12.644,0,0,0-11.406,0,16.711,16.711,0,0,0-7.6,9.991,19.452,19.452,0,0,0,0,13,12.732,12.732,0,0,0,7.339,8.046,12.378,12.378,0,0,0,10.61,0,17.683,17.683,0,0,0,8.134-9.461,19.009,19.009,0,0,0,1.326-13,13.262,13.262,0,0,0-8.4-8.576Z" transform="translate(451.322 64.792)" fill="#fff"/>
    <path id="Caminho_434" data-name="Caminho 434" d="M70.737,10.17c8.046,4.244,12.025,6.454,19.717,11.317l-1.326,2.476-4.332-2.3H83.469L74.009,39.347a11.494,11.494,0,0,0-1.592,8.842,14.943,14.943,0,0,0,6.543,6.985,8.842,8.842,0,0,0,15.119-3.448l9.991-16.534v-1.5L100,30.506l1.5-2.387c6.012,4.067,8.842,6.189,14.854,10.522l-1.592,2.387L110.7,38.375h-1.415L98.5,55.174a13.351,13.351,0,0,1-9.991,7.073A24.226,24.226,0,0,1,74.539,57.3a35.368,35.368,0,0,1-7.162-5.836,16.446,16.446,0,0,1-3.713-6.189,11.761,11.761,0,0,1,0-4.951,25.373,25.373,0,0,1,2.3-6.278c3.625-7.162,5.393-10.787,8.842-17.683l-.619-1.238-4.244-2.653Z" transform="translate(497.163 79.75)" fill="#fff"/>
    <path id="Caminho_435" data-name="Caminho 435" d="M89.735,13.65a212.069,212.069,0,0,1,19.1,15.738,30.769,30.769,0,0,1,8.842,11.671,8.223,8.223,0,0,1-1.238,8.842,7.074,7.074,0,0,1-6.012,2.21,22.723,22.723,0,0,1-9.461-4.244A20.421,20.421,0,0,1,103.7,52.2a10.964,10.964,0,0,1,.973,3.979,22.9,22.9,0,0,1-1.326,6.543c-.442,1.326-.8,2.3-.973,2.918a7.78,7.78,0,0,0,0,4.509,18.564,18.564,0,0,0,3.537,4.863l.707.707-1.857,2.034L101.759,75.1a32.113,32.113,0,0,1-2.476-2.387,19.715,19.715,0,0,1-2.829-3.36,16.357,16.357,0,0,1-1.592-3.36,14.942,14.942,0,0,1,0-8.842q0-.663,0-1.061a13.883,13.883,0,0,0,0-8.134,15.031,15.031,0,0,0-4.686-6.1l-.973-.8c-3.095,4.067-4.6,6.189-7.692,10.345a8.323,8.323,0,0,0,0,1.415l3.183,3.271-1.68,2.21c-6.189-5.482-9.461-8.134-15.915-13.086l2.653-1.945,3.537,2.387h1.768L92.741,20.635a10.168,10.168,0,0,0-.53-1.5l-3.537-3.095Zm11.052,13.086L91.945,38.76l.8.707,1.326,1.149A19.806,19.806,0,0,0,102.2,45.3a5.836,5.836,0,0,0,5.836-2.476,6.455,6.455,0,0,0,1.238-6.278,17.683,17.683,0,0,0-5.57-7.339Z" transform="translate(526.176 107.039)" fill="#fff"/>
    <path id="Caminho_436" data-name="Caminho 436" d="M71.34,46.329,73.2,44.207l3.625,3.271h1.415L98.926,25.639V24.313L94.859,19.8l1.857-2.034c6.012,6.278,8.842,9.549,14.677,16.357l-1.061,1.149c-4.067,11.229-6.278,16.8-10.875,27.586,10.7-3.095,16.092-4.421,27.144-6.72l1.238-1.061c5.393,7.339,7.958,11.229,13,19.1l-2.21,1.592c-1.326-1.945-2.034-2.918-3.448-4.775h-1.149l-23.7,18.391v1.238c1.149,1.857,1.68,2.829,2.741,4.686l-2.21,1.68a207.151,207.151,0,0,0-12.2-17.683l2.034-1.768,3.095,3.713h1.149l23.43-19.186a320.422,320.422,0,0,0-36.074,8.842l-3.448-4.332c6.1-14.147,8.842-21.4,13.881-36.162L81.862,51.81V53.4l2.829,3.89-1.945,1.945A91.927,91.927,0,0,0,71.34,46.329Z" transform="translate(559.425 139.347)" fill="#fff"/>
    <path id="Caminho_437" data-name="Caminho 437" d="M76.05,46.664l2.3-1.592,2.741,3.979,1.415.619L107,32.606a11.313,11.313,0,0,1,0-1.68l-2.564-4.775,2.21-1.592a332.073,332.073,0,0,1,22.016,40.053l-7.692,4.156-2.653-5.57,3.537-3.8V58.158c-3.183-6.543-4.951-9.726-8.4-16-4.421,2.918-6.631,4.421-11.141,7.25,2.21,3.979,3.271,5.924,5.305,9.991l1.238.619,3.89-1.238c.884,1.857,1.415,2.741,2.3,4.686L103.9,69.918c-.884-1.857-1.326-2.741-2.3-4.509l3.095-2.829v-1.5c-2.034-3.979-3.095-5.924-5.3-9.814L87.279,59.219c3.714,6.631,5.482,10.08,8.842,17.064l1.149.442,5.747-1.68c1.061,2.122,1.5,3.183,2.476,5.305l-8.842,4.774a294.528,294.528,0,0,0-20.6-38.461Z" transform="translate(596.359 192.591)" fill="#fff"/>
    <path id="Caminho_438" data-name="Caminho 438" d="M106.844,29.84a358.974,358.974,0,0,1,19.363,51.812l-8.842,3.183c-.707-2.564-1.149-3.8-1.945-6.278l5.04-3.625V73.341c-1.415-4.421-2.21-6.631-3.714-10.964L88.984,73.871V75.64l1.592,5.482-2.564.973c-3.36-9.9-5.128-14.766-8.842-24.138l2.476-1.238,2.3,5.128,1.326.973L112.68,50.353c-1.68-4.244-2.476-6.278-4.244-10.433l-1.149-.973-5.924,1.238L98.8,34.438Z" transform="translate(620.825 233.995)" fill="#fff"/>
    <path id="Caminho_439" data-name="Caminho 439" d="M700.132,39.42a346.151,346.151,0,1,1-683.992,0H9.686A347.293,347.293,0,0,0,5.53,93.177c0,194.788,157.907,352.694,352.694,352.694S710.919,287.965,710.919,93.177a347.275,347.275,0,0,0-4.156-53.757Z" transform="translate(43.364 309.119)" fill="#fff"/>
    <path id="Caminho_440" data-name="Caminho 440" d="M360.649,451.043A355.347,355.347,0,0,1,9.37,41.5V39.11H21.925l-.884,3.183a347.659,347.659,0,0,0-4.156,53.05c0,189.66,153.75,343.411,343.411,343.411S703.706,285,703.706,95.343a348.457,348.457,0,0,0-4.156-53.05l-.53-3.183h12.555V41.5A355.347,355.347,0,0,1,360.649,451.043ZM14.5,44.327a349.865,349.865,0,1,0,692.3,0h-.973A348.981,348.981,0,1,1,11.669,95.608a338.721,338.721,0,0,1,3.8-50.928Z" transform="translate(40.851 306.688)" fill="#fff"/>
  </g>
</svg>
